<svg xmlns="http://www.w3.org/2000/svg" xmlns:xlink="http://www.w3.org/1999/xlink" width="500" zoomAndPan="magnify" viewBox="0 0 375 374.999991" height="500" preserveAspectRatio="xMidYMid meet" version="1.0"><defs><g/><clipPath id="585d5101a1"><path d="M 62 70 L 270 70 L 270 284 L 62 284 Z M 62 70 " clip-rule="nonzero"/></clipPath><clipPath id="3b28c0f4b7"><path d="M 78.992188 56.59375 L 328.460938 86.457031 L 300.46875 320.285156 L 51 290.421875 Z M 78.992188 56.59375 " clip-rule="nonzero"/></clipPath><clipPath id="45f675eb7b"><path d="M 78.992188 56.59375 L 328.460938 86.457031 L 300.46875 320.285156 L 51 290.421875 Z M 78.992188 56.59375 " clip-rule="nonzero"/></clipPath><clipPath id="feb7eaf4ab"><path d="M 169 162 L 314 162 L 314 306 L 169 306 Z M 169 162 " clip-rule="nonzero"/></clipPath><clipPath id="80910a571d"><path d="M 78.992188 56.59375 L 328.460938 86.457031 L 300.46875 320.285156 L 51 290.421875 Z M 78.992188 56.59375 " clip-rule="nonzero"/></clipPath><clipPath id="914338d042"><path d="M 78.992188 56.59375 L 328.460938 86.457031 L 300.46875 320.285156 L 51 290.421875 Z M 78.992188 56.59375 " clip-rule="nonzero"/></clipPath><clipPath id="0866341167"><path d="M 187.574219 149.832031 L 318.859375 165.546875 L 300.398438 319.757812 L 169.113281 304.042969 Z M 187.574219 149.832031 " clip-rule="nonzero"/></clipPath></defs><rect x="-37.5" width="450" fill="#ffffff" y="-37.499999" height="449.999989" fill-opacity="1"/><rect x="-37.5" width="450" fill="#f5f8e5" y="-37.499999" height="449.999989" fill-opacity="1"/><g clip-path="url(#585d5101a1)"><g clip-path="url(#3b28c0f4b7)"><g clip-path="url(#45f675eb7b)"><path fill="#4a4a32" d="M 153.054688 97.570312 C 153.097656 97.859375 153.140625 98.148438 153.183594 98.433594 C 153.832031 98.535156 154.597656 98.910156 155.101562 98.679688 C 156.15625 98.191406 156.269531 97.207031 155.636719 95.753906 C 154.667969 96.433594 153.859375 97.003906 153.054688 97.570312 Z M 86.957031 201.042969 C 85.414062 202.855469 85.394531 203.09375 86.535156 204.859375 C 88.429688 203.621094 88.523438 202.96875 86.957031 201.042969 Z M 259.039062 120.363281 C 259.160156 119.121094 257.910156 117.75 256.996094 117.847656 C 256.660156 117.886719 256.175781 118.328125 256.089844 118.667969 C 255.890625 119.511719 256.902344 120.898438 257.726562 120.890625 C 258.21875 120.882812 258.710938 120.503906 259.039062 120.363281 Z M 137.640625 84.867188 C 137.839844 83.683594 136.996094 82.257812 136.292969 82.410156 C 135.667969 82.546875 134.996094 83.132812 134.644531 83.710938 C 134.292969 84.285156 135.398438 85.710938 136.210938 85.652344 C 136.769531 85.613281 137.296875 85.066406 137.640625 84.867188 Z M 68.105469 176.386719 C 69.582031 175.890625 70.226562 174.917969 70.109375 173.523438 C 70.070312 173.082031 69.660156 172.425781 69.296875 172.328125 C 68.933594 172.230469 68.285156 172.597656 67.996094 172.957031 C 67.171875 173.992188 67.316406 175.109375 68.105469 176.386719 Z M 268.113281 107.386719 C 268.304688 105.949219 267.648438 104.996094 266.644531 105.109375 C 266.023438 105.179688 265.238281 105.6875 264.933594 106.230469 C 264.53125 106.949219 265.667969 108.125 266.757812 108.0625 C 267.292969 108.03125 267.808594 107.550781 268.113281 107.386719 Z M 117.054688 94.992188 C 118.21875 95.175781 118.859375 94.761719 119.054688 93.722656 C 119.238281 92.734375 118.566406 91.621094 117.71875 91.597656 C 116.722656 91.570312 116.136719 92.167969 115.96875 93.136719 C 115.796875 94.132812 116.15625 94.828125 117.054688 94.992188 Z M 93.382812 134.066406 C 94.25 132.660156 94.230469 131.335938 93.234375 130.554688 C 92.886719 130.285156 92.121094 130.105469 91.839844 130.308594 C 91.449219 130.59375 91.09375 131.308594 91.144531 131.785156 C 91.292969 133.078125 92.203125 133.753906 93.382812 134.066406 Z M 207.144531 96.078125 C 207.347656 94.824219 206.382812 93.578125 205.472656 93.5 C 204.574219 93.421875 204.003906 93.863281 203.847656 94.796875 C 203.6875 95.773438 204.503906 96.945312 205.523438 96.882812 C 206.152344 96.84375 206.753906 96.285156 207.144531 96.078125 Z M 75.390625 144.652344 C 75.5 143.523438 75.035156 142.757812 74.210938 142.710938 C 73.3125 142.65625 72.523438 143.441406 72.394531 144.484375 C 72.269531 145.503906 72.703125 146.191406 73.628906 146.460938 C 74.347656 146.664062 75.292969 145.628906 75.390625 144.652344 Z M 232.71875 100.902344 C 233.382812 102.113281 234.304688 102.753906 235.539062 102.171875 C 236.011719 101.949219 236.542969 101.042969 236.445312 100.578125 C 236.320312 99.957031 235.691406 99.101562 235.136719 98.976562 C 233.746094 98.652344 233.199219 99.792969 232.71875 100.902344 Z M 185.929688 76.019531 C 187.398438 76.136719 188.242188 75.496094 188.335938 74.300781 C 188.410156 73.34375 187.691406 72.351562 186.839844 72.226562 C 185.890625 72.089844 184.59375 73.300781 184.535156 74.441406 C 184.472656 75.507812 185.015625 76.035156 185.929688 76.019531 Z M 111.285156 146.265625 C 111.410156 145.273438 110.765625 144.316406 109.878906 144.1875 C 108.914062 144.039062 107.417969 145.351562 107.320312 146.476562 C 107.238281 147.460938 107.699219 148.152344 108.648438 148.359375 C 109.742188 148.59375 111.136719 147.445312 111.285156 146.265625 Z M 235.882812 83.875 C 236.925781 84.003906 237.742188 83.394531 237.867188 82.394531 C 238.015625 81.164062 236.9375 79.566406 235.84375 79.402344 C 234.789062 79.246094 233.898438 79.800781 233.730469 80.722656 C 233.503906 81.957031 234.714844 83.730469 235.882812 83.875 Z M 108.199219 131.570312 C 108.074219 132.78125 108.984375 133.808594 110.273438 133.910156 C 111.523438 134.011719 112.378906 133.3125 112.53125 132.066406 C 112.675781 130.878906 111.761719 129.621094 110.65625 129.488281 C 109.601562 129.367188 108.316406 130.453125 108.199219 131.570312 Z M 95.585938 222.34375 C 95.019531 221.09375 94.699219 219.953125 94.050781 219.066406 C 93.34375 218.089844 92.007812 218.332031 91.714844 219.507812 C 91.460938 220.511719 91.5625 221.675781 91.78125 222.707031 C 92.003906 223.738281 92.773438 224.734375 93.894531 224.398438 C 94.546875 224.203125 94.953125 223.152344 95.585938 222.34375 Z M 87.847656 175.050781 C 90.390625 174.117188 91.316406 171.851562 89.835938 170.167969 C 89.351562 169.613281 88.347656 169.195312 87.65625 169.285156 C 87.097656 169.359375 86.414062 170.222656 86.199219 170.871094 C 85.628906 172.59375 86.4375 173.914062 87.847656 175.050781 Z M 85.132812 223.007812 C 85.605469 221.746094 86.027344 220.488281 86.546875 219.277344 C 88.144531 215.566406 88.035156 211.765625 87.1875 207.929688 C 87.070312 207.414062 86.859375 206.644531 86.5 206.503906 C 84.40625 205.699219 84.476562 203.824219 84.339844 201.957031 C 80.777344 205.914062 81.074219 216.695312 85.132812 223.007812 Z M 197.738281 81.996094 C 199.035156 82.605469 200.34375 83.179688 201.617188 83.832031 C 205.203125 85.671875 208.742188 87.625 212.367188 89.390625 C 215.171875 90.757812 218.179688 91.503906 221.296875 91.804688 C 224.691406 92.136719 228.074219 92.59375 231.464844 92.929688 C 236.226562 93.40625 240.738281 94.722656 244.941406 97.019531 C 247.585938 98.464844 250.375 99.207031 253.347656 99.457031 C 257.25 99.785156 260.984375 100.628906 264.210938 103.113281 C 264.730469 103.515625 265.640625 103.445312 266.378906 103.492188 C 267.917969 103.585938 269.414062 104.582031 269.378906 105.882812 C 269.355469 106.902344 269.0625 108.132812 268.429688 108.867188 C 267.570312 109.863281 266.222656 109.488281 265.199219 108.890625 C 264.191406 108.308594 263.125 107.449219 263.527344 106.085938 C 263.988281 104.539062 263.214844 103.738281 262.113281 103.292969 C 259.828125 102.371094 257.5 101.492188 255.117188 100.894531 C 253.1875 100.414062 251.148438 100.371094 248.902344 100.472656 C 250.546875 101.949219 252.082031 103.570312 253.851562 104.867188 C 256.042969 106.46875 258.402344 107.847656 260.730469 109.25 C 265.253906 111.972656 266.898438 115.972656 266.28125 121.25 C 265.984375 123.765625 266.238281 126.347656 266.238281 128.953125 C 264.820312 127.707031 264.652344 125.980469 264.753906 124.167969 C 264.875 122.046875 265.101562 119.929688 265.152344 117.808594 C 265.207031 115.425781 264.136719 113.496094 262.300781 112.132812 C 260.066406 110.472656 257.695312 108.996094 255.011719 107.1875 C 255.585938 110.167969 255.988281 112.6875 256.601562 115.152344 C 256.757812 115.769531 257.523438 116.320312 258.132812 116.691406 C 259.175781 117.332031 260.074219 118.039062 260.273438 119.320312 C 260.449219 120.488281 260.222656 121.539062 259.058594 122.136719 C 257.9375 122.714844 256.960938 122.507812 256.136719 121.554688 C 255.125 120.386719 254.324219 119.066406 254.878906 117.476562 C 255.566406 115.519531 255.132812 113.710938 254.355469 112.003906 C 250.023438 102.464844 242.796875 96.851562 232.460938 95.570312 C 227.851562 95 223.234375 94.464844 218.273438 93.871094 C 219.597656 95.671875 220.847656 96.839844 222.820312 97.191406 C 225.472656 97.664062 228.070312 98.445312 230.722656 98.890625 C 231.40625 99.003906 232.269531 98.449219 232.957031 98.039062 C 235.171875 96.714844 237.425781 97.710938 237.84375 100.257812 C 238.085938 101.722656 237.425781 102.972656 236.117188 103.535156 C 234.632812 104.167969 233.089844 103.6875 231.96875 102.339844 C 231.292969 101.523438 230.605469 100.660156 229.757812 100.058594 C 229.171875 99.636719 228.316406 99.550781 227.558594 99.4375 C 225.894531 99.191406 224.21875 99.023438 222.625 98.835938 C 226.632812 104.261719 232.378906 107.199219 239.308594 108.835938 C 238.039062 109.796875 237.015625 109.585938 236.035156 109.320312 C 230.742188 107.871094 226.269531 105.089844 222.59375 100.914062 C 220.484375 98.515625 218.1875 96.285156 215.949219 94 C 215.628906 93.671875 215.21875 93.414062 214.808594 93.203125 C 209.425781 90.425781 204.089844 87.558594 198.640625 84.929688 C 194.265625 82.816406 189.574219 82.589844 184.777344 83.644531 C 186.253906 83.820312 187.757812 83.871094 189.199219 84.203125 C 192.414062 84.9375 194.871094 86.9375 197.140625 89.273438 C 198.328125 90.496094 199.710938 91.527344 201.023438 92.621094 C 201.816406 93.28125 202.554688 93.359375 203.546875 92.757812 C 205.117188 91.800781 206.550781 92.128906 207.738281 93.382812 C 208.648438 94.347656 208.75 95.714844 207.996094 96.847656 C 207.199219 98.042969 205.96875 98.53125 204.773438 97.914062 C 204.042969 97.539062 203.171875 96.996094 202.875 96.300781 C 202.328125 95.019531 201.3125 94.46875 200.320312 93.71875 C 198.652344 92.449219 196.96875 91.136719 195.585938 89.566406 C 192.191406 85.714844 187.851562 84.605469 183.023438 84.660156 C 178.875 84.710938 174.914062 85.574219 171.050781 87.183594 C 168.148438 88.390625 165.117188 89.277344 162.042969 90.34375 C 164.371094 91.398438 166.515625 92.414062 168.703125 93.324219 C 169.316406 93.578125 170.058594 93.613281 170.738281 93.574219 C 173.75 93.410156 176.453125 92.285156 179.027344 90.726562 C 181.796875 89.046875 184.699219 87.734375 188.039062 88.121094 C 189.113281 88.246094 190.195312 88.390625 191.234375 88.679688 C 191.8125 88.839844 192.304688 89.3125 192.839844 89.640625 C 192.773438 89.804688 192.707031 89.964844 192.644531 90.128906 C 192.238281 90.117188 191.800781 90.203125 191.433594 90.074219 C 187.757812 88.773438 184.242188 89.230469 180.914062 91.191406 C 178.296875 92.734375 175.6875 94.257812 172.613281 94.722656 C 172.625 94.882812 172.636719 95.046875 172.648438 95.207031 C 175.695312 95.351562 178.765625 95.8125 181.78125 95.558594 C 184.792969 95.308594 187.75 94.339844 190.957031 93.640625 C 190.597656 94.074219 190.363281 94.578125 189.980469 94.78125 C 188.882812 95.363281 187.769531 96.027344 186.585938 96.296875 C 180.21875 97.746094 173.988281 97.617188 168.023438 94.542969 C 166.171875 93.589844 164.207031 92.859375 162.300781 92.003906 C 160.277344 91.089844 158.222656 91.429688 156.144531 91.761719 C 150.378906 92.695312 145.101562 94.980469 140.277344 98.234375 C 134.535156 102.109375 128.972656 106.257812 123.007812 110.519531 C 124.332031 110.597656 125.441406 110.789062 126.527344 110.695312 C 130.261719 110.390625 133.566406 108.941406 136.519531 106.585938 C 140.070312 103.753906 143.644531 100.960938 147.777344 99.03125 C 148.410156 98.734375 149.039062 98.375 149.707031 98.21875 C 151.027344 97.90625 152.230469 97.46875 152.988281 96.222656 C 153.066406 96.09375 153.210938 96 153.335938 95.90625 C 154.214844 95.230469 155.113281 94.523438 156.289062 95.105469 C 157.074219 95.496094 157.449219 96.972656 157.042969 98.097656 C 156.613281 99.292969 155.808594 100.132812 154.484375 100.164062 C 153.96875 100.175781 153.265625 100.109375 152.953125 99.78125 C 151.832031 98.589844 150.78125 99.109375 149.585938 99.617188 C 144.726562 101.683594 140.601562 104.921875 136.425781 108.085938 C 132.175781 111.300781 127.519531 112.796875 122.214844 111.574219 C 121.609375 111.433594 120.8125 111.5 120.269531 111.792969 C 112.832031 115.792969 106.578125 121.050781 102.78125 128.9375 C 101.417969 131.773438 100.015625 134.546875 99.132812 137.621094 C 98.269531 140.621094 96.832031 143.457031 95.808594 146.535156 C 96.136719 146.195312 96.496094 145.882812 96.789062 145.511719 C 100.136719 141.203125 103.003906 136.648438 104.390625 131.238281 C 106.160156 124.339844 111.183594 120.949219 117.46875 119.027344 C 117.660156 118.96875 117.902344 119.070312 118.292969 119.117188 C 117.875 120.1875 116.867188 120.304688 116.144531 120.71875 C 114.382812 121.71875 112.457031 122.453125 110.808594 123.605469 C 108.289062 125.367188 106.71875 127.980469 105.921875 130.933594 C 104.277344 137.023438 101.316406 142.296875 97.007812 146.820312 C 96.847656 146.988281 96.714844 147.183594 96.554688 147.382812 C 101.25 146.160156 107.667969 140.046875 109.074219 135.375 C 108.683594 134.992188 108.210938 134.601562 107.824219 134.140625 C 106.414062 132.449219 106.667969 130.273438 108.398438 128.945312 C 110.027344 127.699219 112.140625 128.03125 113.308594 129.714844 C 114.492188 131.421875 114.039062 133.820312 112.09375 134.769531 C 110.835938 135.386719 110.222656 136.246094 109.769531 137.484375 C 109.054688 139.425781 108.042969 141.171875 106.3125 142.417969 C 105.371094 143.097656 104.542969 143.9375 103.410156 144.921875 C 104.996094 144.933594 106.167969 144.851562 107.28125 143.953125 C 109.261719 142.359375 111.242188 142.59375 112.234375 144.382812 C 113.128906 145.992188 112.367188 148.339844 110.652344 149.253906 C 108.742188 150.273438 106.917969 149.492188 106.054688 147.285156 C 105.96875 147.070312 105.894531 146.851562 105.777344 146.527344 C 105.4375 146.464844 105.054688 146.289062 104.707031 146.347656 C 100.839844 147.023438 97.175781 148.230469 94.117188 150.882812 C 93.535156 151.390625 92.992188 151.992188 92.578125 152.644531 C 90.863281 155.359375 89.203125 158.113281 87.308594 161.203125 C 90.035156 160.5625 92.320312 159.671875 94.085938 157.683594 C 95.230469 156.390625 96.25 154.972656 97.46875 153.757812 C 98.394531 152.832031 99.484375 152.023438 100.617188 151.378906 C 101.246094 151.023438 102.113281 151.105469 102.921875 151.386719 C 101.457031 152.359375 99.859375 153.179688 98.574219 154.351562 C 97.253906 155.554688 96.289062 157.144531 95.089844 158.488281 C 93.25 160.539062 90.949219 161.882812 88.292969 162.382812 C 85.242188 162.964844 83.292969 164.859375 81.464844 167.261719 C 77.398438 172.613281 76.808594 178.851562 76.574219 185.214844 C 76.523438 186.621094 76.710938 188.039062 76.808594 189.851562 C 78.746094 186.648438 80.765625 183.847656 81.332031 180.503906 C 81.882812 177.230469 81.796875 173.84375 82.019531 169.921875 C 82.558594 170.738281 82.996094 171.101562 83.042969 171.507812 C 83.4375 175.15625 83.234375 178.78125 82.027344 182.257812 C 81.277344 184.40625 80.378906 186.550781 79.210938 188.488281 C 77.589844 191.164062 77.355469 194.039062 77.691406 196.9375 C 78.019531 199.722656 78.820312 202.449219 79.699219 205.203125 C 80.652344 202.246094 82.625 199.683594 82.015625 196.3125 C 81.515625 193.511719 82.429688 190.859375 83.460938 188.273438 C 84.625 185.355469 85.789062 182.433594 86.863281 179.480469 C 87.492188 177.75 87.34375 176.167969 85.894531 174.757812 C 84.59375 173.488281 84.542969 171.769531 85.128906 170.109375 C 85.953125 167.761719 88.683594 167.179688 90.433594 168.910156 C 92.664062 171.109375 92.382812 174.171875 89.695312 175.898438 C 88.941406 176.382812 88.710938 176.9375 88.484375 177.742188 C 87.738281 180.382812 86.917969 183.007812 86.015625 185.601562 C 85.164062 188.046875 84.113281 190.425781 83.277344 192.875 C 82.964844 193.800781 83.007812 194.851562 82.890625 195.84375 C 83.042969 195.886719 83.195312 195.933594 83.347656 195.976562 C 85.25 191.660156 87.152344 187.347656 89.058594 183.035156 C 89.238281 183.097656 89.414062 183.164062 89.59375 183.226562 C 89.808594 188.652344 86.898438 193.234375 85.316406 198.210938 C 87.40625 196.425781 89 194.257812 89.941406 191.683594 C 90.996094 188.804688 91.828125 185.84375 92.828125 182.941406 C 93.167969 181.960938 93.726562 181.054688 94.183594 180.117188 C 94.332031 180.183594 94.480469 180.25 94.628906 180.316406 C 93.929688 182.863281 93.230469 185.40625 92.507812 188.046875 C 95.382812 185.621094 96.757812 182.1875 96.425781 178.480469 C 96.316406 177.226562 96.246094 175.96875 96.207031 174.710938 C 96.195312 174.433594 96.382812 174.144531 96.664062 173.886719 C 97.832031 178.128906 98.386719 182.398438 95.515625 186.167969 C 93.238281 189.171875 91 192.140625 89.3125 195.550781 C 88.597656 196.996094 87.375 198.183594 86.382812 199.492188 C 89.210938 200.464844 89.914062 202.113281 88.546875 204.859375 C 88.125 205.707031 88.097656 206.367188 88.339844 207.285156 C 89.425781 211.390625 89.792969 215.5 87.871094 219.53125 C 87.4375 220.445312 87.164062 221.453125 86.921875 222.445312 C 86.367188 224.699219 86.945312 226.695312 88.5 228.339844 C 90.476562 230.433594 92.527344 232.460938 94.929688 234.910156 C 95.183594 231.789062 95.375 229.152344 94.117188 226.644531 C 93.945312 226.300781 93.382812 226.117188 92.964844 225.957031 C 90.457031 224.988281 89.378906 221.730469 90.5625 218.667969 C 91.28125 216.804688 93.238281 216.414062 94.757812 217.679688 C 96.421875 219.066406 97.195312 222.140625 96.136719 224.148438 C 95.480469 225.390625 95.605469 226.453125 95.808594 227.742188 C 96.148438 229.902344 96.089844 232.125 96.3125 234.308594 C 96.449219 235.613281 96.601562 236.984375 97.101562 238.167969 C 98.332031 241.0625 98.917969 244.007812 98.503906 247.160156 C 98.183594 249.589844 97.863281 252.019531 97.613281 254.453125 C 97.128906 259.210938 98.773438 262.996094 102.777344 265.539062 C 104.707031 266.769531 106.78125 267.773438 108.917969 268.710938 C 106.351562 265.042969 105.429688 260.785156 104 256.734375 C 103.457031 255.210938 102.519531 253.824219 101.703125 252.40625 C 100.953125 251.097656 99.890625 249.886719 100.761719 247.765625 C 102.492188 250.8125 104.046875 253.550781 105.582031 256.257812 C 105.738281 252.082031 105.515625 247.96875 102.980469 244.246094 C 101.105469 241.5 99.902344 238.414062 100.097656 234.9375 C 100.105469 234.800781 100.207031 234.664062 100.492188 234.011719 C 101.4375 239.027344 103.5625 243.058594 106.246094 247.089844 C 106.621094 244.976562 106.191406 243.101562 105.746094 241.253906 C 104.820312 237.425781 103.8125 233.617188 102.855469 229.796875 C 102.644531 228.964844 102.492188 228.121094 102.3125 227.285156 C 102.457031 227.21875 102.601562 227.152344 102.746094 227.089844 C 103.257812 228.378906 103.816406 229.652344 104.269531 230.964844 C 104.785156 232.453125 105.214844 233.96875 105.65625 235.476562 C 106.074219 236.910156 106.464844 238.347656 107.273438 239.734375 C 107.117188 238.523438 107.089844 237.273438 106.773438 236.109375 C 106.125 233.707031 106.011719 231.351562 106.4375 228.871094 C 106.773438 226.925781 106.5625 224.941406 105.320312 223.226562 C 104.707031 222.375 104.210938 221.4375 103.90625 220.40625 C 106.109375 222.125 107.820312 224.226562 107.410156 227.214844 C 106.953125 230.574219 107.324219 233.757812 108.003906 237.046875 C 108.5 239.457031 108.1875 242.054688 108.144531 244.566406 C 108.125 245.722656 107.890625 246.875 107.710938 248.367188 C 110.703125 245.101562 111.699219 241.367188 112.371094 237.464844 C 113.410156 240.226562 112.664062 242.746094 111.433594 245.144531 C 110.574219 246.820312 109.457031 248.359375 108.554688 250.015625 C 105.136719 256.296875 106.578125 264.429688 111.847656 269.207031 C 115.777344 272.765625 119.648438 276.386719 123.523438 280 C 124.367188 280.785156 125.285156 281.582031 124.957031 283.019531 C 123.78125 283.574219 123.011719 282.859375 122.277344 282.179688 C 121.015625 281.015625 119.78125 279.820312 118.566406 278.609375 C 114.5625 274.609375 109.523438 272.324219 104.59375 269.867188 C 101.996094 268.574219 99.5625 267.058594 97.753906 264.710938 C 97.03125 263.769531 96.066406 263.773438 95.0625 263.636719 C 93.386719 263.410156 91.644531 263.289062 90.082031 262.707031 C 86.035156 261.199219 83.941406 257.867188 82.796875 253.820312 C 82.539062 252.917969 82.355469 251.964844 82.332031 251.027344 C 82.171875 244.789062 79.195312 239.929688 75.199219 235.550781 C 74.78125 235.089844 74.371094 234.625 73.980469 234.140625 C 73.914062 234.058594 73.988281 233.863281 74.011719 233.507812 C 76.167969 234.523438 77.480469 236.34375 78.875 238.050781 C 81.851562 241.695312 83.269531 245.949219 83.566406 250.65625 C 83.757812 253.640625 84.695312 256.347656 86.628906 258.667969 C 88.195312 260.550781 90.140625 261.683594 92.9375 262.1875 C 92.441406 261.714844 92.246094 261.46875 91.996094 261.300781 C 89.269531 259.457031 87.878906 256.765625 87.765625 253.53125 C 87.597656 248.824219 86.523438 244.5 83.644531 240.738281 C 83.273438 240.253906 83.054688 239.648438 82.976562 238.816406 C 83.347656 239.070312 83.792969 239.253906 84.085938 239.582031 C 86.824219 242.660156 88.371094 246.28125 88.730469 250.433594 C 88.785156 251.058594 88.878906 251.6875 88.882812 252.316406 C 88.898438 257.179688 91.433594 260.234375 95.941406 262.296875 C 95.261719 259.710938 94.644531 257.367188 94.023438 255.023438 C 93.757812 254.035156 93.363281 253.070312 93.226562 252.066406 C 92.546875 247.144531 90.824219 242.792969 86.953125 239.546875 C 86.796875 239.414062 86.738281 239.164062 86.613281 238.929688 C 88.390625 239.125 89.621094 240.222656 92.609375 244.324219 C 91.433594 239.898438 89.03125 237.015625 85.429688 235.15625 C 83.363281 234.089844 81.183594 233.238281 79.160156 232.097656 C 74.921875 229.726562 72.519531 225.972656 71.429688 220.90625 C 73.445312 223.800781 75.066406 226.605469 77.148438 228.988281 C 79.28125 231.425781 82.421875 232.34375 85.585938 233.105469 C 83.945312 231.960938 82.375 230.695312 80.652344 229.710938 C 78.65625 228.574219 77.351562 226.96875 76.464844 224.878906 C 77.332031 224.210938 77.746094 224.8125 78.042969 225.296875 C 79.09375 227.027344 80.578125 228.164062 82.304688 229.160156 C 84.53125 230.449219 86.449219 232.164062 87.773438 234.484375 C 88.113281 235.082031 88.632812 235.597656 89.140625 236.070312 C 92.84375 239.472656 94.386719 243.730469 94.117188 248.773438 C 94.039062 250.230469 94.203125 251.699219 94.554688 253.171875 C 95.164062 249.875 95.980469 246.625 95.726562 243.257812 C 95.464844 239.785156 93.324219 237.375 91.136719 235.003906 C 88.972656 232.65625 86.734375 230.367188 84.664062 227.933594 C 83.359375 226.394531 82.164062 224.722656 81.152344 222.96875 C 79.222656 219.613281 76.265625 217.976562 72.648438 217.53125 C 68.886719 217.066406 66.480469 214.824219 64.65625 211.730469 C 63.796875 210.28125 63.128906 208.710938 62.238281 206.925781 C 63.566406 206.8125 63.828125 207.5 64.175781 208.054688 C 65.214844 209.714844 66.214844 211.398438 67.292969 213.03125 C 68.484375 214.835938 70.277344 215.855469 72.304688 216.148438 C 75.53125 216.617188 78.433594 217.601562 80.671875 220.179688 C 79.359375 217.058594 77.484375 214.449219 74.742188 212.554688 C 73.078125 211.40625 71.382812 210.300781 69.730469 209.132812 C 64.296875 205.285156 62.652344 199.652344 62.691406 193.261719 C 62.695312 192.796875 63.039062 192.335938 63.433594 191.851562 C 63.648438 199.867188 66.316406 206.328125 73.742188 209.992188 C 73.230469 206.921875 72.773438 203.84375 72.191406 200.796875 C 71.714844 198.320312 69.871094 196.777344 68.195312 195.136719 C 67.578125 194.535156 67.039062 193.855469 66.222656 192.941406 C 66.941406 192.90625 67.21875 192.796875 67.359375 192.898438 C 70.710938 195.230469 73.457031 197.992188 73.917969 202.417969 C 74.070312 203.90625 74.28125 205.394531 74.566406 206.859375 C 75.195312 210.125 76.640625 212.886719 79.511719 214.835938 C 79.824219 212.03125 78.355469 209.753906 77.695312 207.300781 C 76.117188 201.457031 73.421875 196.160156 69.761719 191.382812 C 66.824219 187.539062 66.058594 183.175781 66.824219 178.425781 C 66.914062 177.871094 66.601562 177.261719 66.554688 176.671875 C 66.464844 175.519531 66.214844 174.316406 66.433594 173.214844 C 66.765625 171.535156 68.484375 170.515625 69.726562 170.984375 C 71.101562 171.503906 72.109375 173.519531 71.382812 174.917969 C 70.839844 175.964844 69.890625 176.914062 68.910156 177.574219 C 68.160156 178.074219 67.8125 178.546875 67.714844 179.394531 C 67.257812 183.394531 67.957031 187.070312 70.382812 190.34375 C 71.960938 192.480469 73.433594 194.691406 75.058594 197.019531 C 74.851562 194.976562 74.558594 193.035156 74.476562 191.085938 C 74.34375 187.863281 74.371094 184.628906 74.28125 181.402344 C 74.261719 180.636719 74.191406 179.8125 73.894531 179.125 C 72.71875 176.363281 72.449219 173.503906 72.808594 170.546875 C 72.953125 169.371094 73.039062 168.183594 73.261719 167.019531 C 74.109375 162.558594 73.539062 158.382812 70.941406 154.578125 C 71.070312 154.484375 71.203125 154.390625 71.335938 154.300781 C 71.863281 154.910156 72.46875 155.464844 72.90625 156.136719 C 74.824219 159.109375 75.214844 162.445312 74.925781 165.898438 C 74.738281 168.105469 74.351562 170.292969 74.195312 172.496094 C 74.101562 173.886719 74.269531 175.292969 74.566406 176.675781 C 75.386719 174.375 76.445312 172.125 76.957031 169.757812 C 77.417969 167.632812 77.269531 165.375 77.402344 163.175781 C 77.671875 158.8125 77.558594 154.503906 75.9375 150.363281 C 75.402344 149 74.84375 148 73.152344 147.652344 C 70.957031 147.199219 70.277344 144.316406 71.710938 142.515625 C 72.46875 141.5625 74.015625 141.089844 75.078125 141.480469 C 76.222656 141.902344 77.140625 143.175781 76.511719 144.554688 C 75.328125 147.148438 76.628906 149.070312 77.457031 151.222656 C 78.753906 154.578125 79.164062 158.082031 78.773438 161.683594 C 78.683594 162.53125 78.570312 163.382812 78.429688 164.578125 C 80.203125 160.246094 82.199219 156.355469 83.371094 152.21875 C 84.386719 148.632812 84.6875 144.78125 84.917969 141.027344 C 85.242188 135.835938 85.027344 130.59375 87.15625 125.683594 C 87.671875 124.496094 88.328125 123.378906 88.921875 122.226562 C 89.054688 122.292969 89.191406 122.359375 89.324219 122.425781 C 88.613281 124.554688 87.722656 126.644531 87.230469 128.828125 C 86.730469 131.035156 86.402344 133.335938 86.386719 135.59375 C 86.324219 143.835938 86.089844 152.003906 81.960938 159.492188 C 81.183594 160.902344 80.78125 162.53125 80.207031 164.0625 C 80.34375 164.144531 80.476562 164.226562 80.613281 164.308594 C 82.203125 162.609375 83.828125 160.941406 85.363281 159.1875 C 85.746094 158.75 85.964844 158.0625 86.023438 157.464844 C 86.277344 154.960938 87.273438 152.746094 88.496094 150.621094 C 90.742188 146.722656 91.988281 142.554688 92.199219 138.035156 C 92.269531 136.433594 91.96875 135.199219 90.902344 133.941406 C 90.234375 133.152344 89.875 131.785156 89.976562 130.734375 C 90.042969 130.0625 91.113281 129.214844 91.894531 128.949219 C 93 128.578125 93.992188 129.246094 94.652344 130.238281 C 95.925781 132.167969 95.46875 134.207031 93.289062 135.792969 C 94.46875 142.890625 91 148.820312 87.804688 154.828125 C 87.929688 154.90625 88.0625 154.984375 88.191406 155.0625 C 88.359375 154.90625 88.550781 154.773438 88.6875 154.59375 C 88.875 154.34375 89.042969 154.066406 89.175781 153.785156 C 91.515625 148.875 93.921875 143.996094 96.164062 139.039062 C 98.34375 134.21875 98.152344 129.1875 96.832031 124.21875 C 95.976562 121.015625 94.960938 117.847656 95.183594 114.492188 C 95.636719 107.695312 98.28125 102.011719 103.769531 97.875 C 103.972656 97.71875 104.277344 97.703125 104.640625 97.753906 C 100.894531 101.363281 97.929688 105.386719 97.136719 110.753906 C 98.960938 107.824219 101.753906 105.960938 104.203125 103.714844 C 106.890625 101.238281 108.90625 98.257812 109.625 94.511719 C 109.8125 93.539062 110.230469 92.605469 110.675781 91.695312 C 111.089844 94.636719 110.0625 97.222656 108.695312 99.683594 C 107.1875 102.40625 105.070312 104.605469 102.707031 106.582031 C 101.570312 107.535156 100.433594 108.519531 99.476562 109.652344 C 98.679688 110.589844 97.75 111.707031 97.582031 112.851562 C 97.175781 115.566406 96.269531 118.328125 97.375 121.558594 C 97.851562 116.441406 100.328125 112.757812 103.148438 109.265625 C 103.78125 108.484375 104.53125 107.667969 105.398438 107.242188 C 107.542969 106.183594 108.714844 104.476562 109.296875 102.214844 C 109.445312 101.636719 109.722656 101.089844 110.074219 100.585938 C 110.566406 103.140625 109.472656 105.085938 107.957031 106.96875 C 105.992188 109.414062 104.117188 111.933594 102.300781 114.488281 C 99.09375 119.003906 99.074219 124.046875 100.105469 129.523438 C 102.105469 125.296875 104.398438 121.578125 107.402344 118.316406 C 109.148438 116.421875 110.671875 114.300781 112.160156 112.1875 C 114.449219 108.9375 114.90625 105.382812 113.53125 101.621094 C 112.398438 98.53125 111.9375 95.367188 112.636719 92.097656 C 113.054688 90.140625 113.742188 88.324219 115.746094 87.128906 C 115.742188 87.472656 115.816406 87.714844 115.730469 87.824219 C 113.355469 90.78125 113.171875 94.214844 113.828125 97.710938 C 114.378906 100.617188 115.246094 103.464844 115.996094 106.425781 C 118.183594 103.503906 118.527344 100.148438 118.511719 96.570312 C 117.804688 96.375 117.203125 96.269531 116.644531 96.050781 C 115.117188 95.445312 114.460938 93.960938 114.976562 92.386719 C 115.398438 91.105469 116.871094 90.257812 118.132812 90.574219 C 119.652344 90.957031 120.621094 92.433594 120.054688 94.050781 C 119.34375 96.085938 119.710938 98.058594 119.765625 100.058594 C 119.929688 100.230469 120.09375 100.402344 120.257812 100.574219 C 120.367188 100.28125 120.421875 99.957031 120.589844 99.707031 C 122.726562 96.476562 125.738281 94.265625 128.953125 92.292969 C 131.246094 90.882812 133.125 89.042969 134.59375 86.726562 C 134.183594 86.117188 133.765625 85.644531 133.519531 85.09375 C 132.878906 83.648438 133.726562 81.765625 135.21875 81.183594 C 136.675781 80.613281 138.308594 81.535156 138.84375 83.230469 C 139.386719 84.925781 138.742188 86.019531 136.96875 86.617188 C 136.363281 86.820312 135.625 87.128906 135.304688 87.628906 C 133.585938 90.292969 131.152344 92.179688 128.570312 93.753906 C 124.507812 96.238281 121.535156 99.683594 119.105469 103.703125 C 117.371094 106.582031 115.703125 109.503906 113.898438 112.585938 C 114.273438 112.457031 114.554688 112.414062 114.785156 112.277344 C 117.660156 110.554688 120.53125 108.8125 123.40625 107.089844 C 124.488281 106.441406 125.289062 105.796875 125.503906 104.273438 C 125.875 101.679688 127.566406 99.726562 129.472656 98.023438 C 132.066406 95.714844 134.925781 93.835938 138.074219 92.414062 C 138.570312 92.191406 139.058594 91.9375 139.550781 91.710938 C 145.914062 88.777344 145.9375 88.789062 148.949219 82.378906 C 150.675781 78.710938 152.929688 75.585938 156.726562 73.921875 C 157.390625 73.632812 158.101562 73.453125 158.886719 73.433594 C 158.027344 75.222656 156.058594 75.453125 154.871094 76.675781 C 153.621094 77.957031 152.375 79.285156 151.375 80.765625 C 150.386719 82.230469 149.710938 83.917969 149.191406 85.742188 C 150 84.9375 150.84375 84.160156 151.621094 83.320312 C 153.980469 80.773438 156.488281 78.359375 159.625 76.898438 C 161.496094 76.027344 163.59375 75.621094 165.621094 75.171875 C 166.359375 75.003906 167.195312 75.316406 167.96875 75.835938 C 167.226562 75.945312 166.484375 76.101562 165.738281 76.152344 C 161.585938 76.441406 158.175781 78.339844 155.253906 81.238281 C 153.75 82.726562 152.335938 84.308594 150.898438 85.867188 C 148.898438 88.039062 146.460938 89.550781 143.84375 90.808594 C 140.824219 92.261719 137.675781 93.484375 134.832031 95.230469 C 132.480469 96.683594 130.40625 98.660156 128.375 100.585938 C 127.257812 101.640625 126.53125 103.09375 126.328125 105.175781 C 128.195312 103.878906 129.8125 102.855469 131.316406 101.679688 C 135.265625 98.582031 139.265625 95.5625 143.820312 93.464844 C 146.570312 92.203125 149.425781 91.140625 152.292969 90.183594 C 158.886719 87.988281 165.308594 85.515625 170.722656 80.851562 C 174.011719 78.019531 177.734375 75.863281 181.917969 74.703125 C 182.988281 74.40625 183.34375 73.652344 183.824219 72.828125 C 184.835938 71.09375 186.53125 70.53125 187.929688 71.367188 C 189.40625 72.25 189.921875 73.867188 189.242188 75.457031 C 188.660156 76.820312 186.625 77.503906 184.988281 76.796875 C 184.296875 76.496094 183.691406 75.980469 183.046875 75.566406 C 178.273438 76.769531 174.808594 78.917969 165.988281 86.515625 C 166.71875 86.269531 167.453125 86.046875 168.171875 85.777344 C 172.976562 83.96875 177.738281 81.8125 182.855469 81.308594 C 187.15625 80.886719 190.644531 79.070312 194.042969 76.582031 C 197.496094 74.054688 201.296875 72.292969 205.683594 72.351562 C 207.203125 72.371094 208.753906 72.28125 210.480469 73.722656 C 206.464844 73.6875 202.847656 73.175781 199.585938 74.773438 C 196.46875 76.300781 193.527344 78.199219 190.59375 80.144531 C 192.464844 80.894531 194.109375 80.945312 195.914062 80.007812 C 201.113281 77.300781 206.429688 77.914062 211.707031 79.773438 C 213.609375 80.445312 215.464844 81.230469 217.351562 81.933594 C 222.257812 83.769531 227.234375 84.347656 232.449219 82.734375 C 232.449219 82.222656 232.429688 81.765625 232.453125 81.3125 C 232.554688 79.519531 233.34375 78.433594 234.726562 78.164062 C 236.390625 77.839844 237.789062 78.542969 238.558594 80.125 C 239.214844 81.472656 239.429688 82.855469 238.496094 84.152344 C 237.761719 85.164062 236.3125 85.34375 234.667969 84.578125 C 233.546875 84.058594 232.53125 84.0625 231.34375 84.367188 C 226.371094 85.644531 221.53125 85.082031 216.789062 83.171875 C 214.0625 82.074219 211.289062 81.078125 208.488281 80.1875 C 205.101562 79.113281 201.675781 79.148438 198.242188 80.308594 C 202.527344 80.253906 205.984375 82.300781 209.3125 84.648438 C 211.960938 86.511719 214.871094 87.808594 218.027344 88.332031 C 219.828125 88.632812 221.730469 88.519531 223.570312 88.363281 C 226.113281 88.148438 228.636719 87.671875 231.179688 87.402344 C 235.476562 86.949219 239.691406 87.230469 243.675781 89.113281 C 245.4375 89.945312 247.007812 91.019531 248.019531 92.953125 C 247.539062 92.722656 247.011719 92.546875 246.582031 92.242188 C 241.894531 88.910156 236.691406 87.988281 231.101562 88.804688 C 229.570312 89.03125 228.011719 89.113281 226.492188 89.425781 C 219.644531 90.828125 213.460938 89.382812 207.769531 85.3125 C 206.082031 84.105469 204.179688 83.136719 202.261719 82.359375 C 200.898438 81.804688 199.339844 81.757812 197.867188 81.484375 C 197.824219 81.65625 197.78125 81.824219 197.738281 81.996094 " fill-opacity="1" fill-rule="nonzero"/></g></g></g><g clip-path="url(#feb7eaf4ab)"><g clip-path="url(#80910a571d)"><g clip-path="url(#914338d042)"><g clip-path="url(#0866341167)"><path fill="#4a4a32" d="M 259.15625 279.675781 C 260.429688 279.660156 260.824219 278.894531 260.773438 277.847656 C 260.761719 277.597656 260.25 277.132812 260.046875 277.175781 C 259.441406 277.300781 258.875 277.628906 258.289062 277.878906 C 258.660156 278.644531 258.90625 279.160156 259.15625 279.675781 Z M 299.414062 210.300781 C 298.613281 209.519531 298.226562 208.847656 297.695312 208.691406 C 296.859375 208.449219 296.382812 209.191406 296.515625 209.933594 C 296.597656 210.386719 297.164062 210.957031 297.613281 211.066406 C 298.007812 211.164062 298.542969 210.703125 299.414062 210.300781 Z M 248.914062 261.535156 C 248.152344 260.765625 247.722656 259.988281 247.285156 259.984375 C 246.816406 259.984375 246.097656 260.625 245.921875 261.140625 C 245.640625 261.984375 246.332031 262.472656 247.097656 262.429688 C 247.578125 262.402344 248.039062 261.988281 248.914062 261.535156 Z M 301.34375 230.914062 C 300.46875 230.132812 300.054688 229.488281 299.5625 229.417969 C 299.152344 229.359375 298.410156 229.875 298.234375 230.3125 C 297.9375 231.054688 298.355469 231.800781 299.191406 231.816406 C 299.726562 231.828125 300.277344 231.382812 301.34375 230.914062 Z M 282.316406 255.15625 C 283.6875 256.507812 284.4375 256.71875 285.003906 255.941406 C 285.582031 255.148438 285.535156 254.324219 284.84375 253.640625 C 284.117188 252.925781 283.480469 253.304688 282.316406 255.15625 Z M 267.773438 255.121094 C 270.140625 254.484375 272.332031 253.765625 274.578125 253.351562 C 276.074219 253.074219 277.675781 253.046875 279.179688 253.265625 C 280.335938 253.4375 281.15625 253.382812 282.144531 252.625 C 283.792969 251.367188 285.933594 252.070312 286.5625 253.859375 C 287.011719 255.132812 286.554688 256.808594 285.570312 257.503906 C 284.617188 258.179688 283.269531 257.976562 282.164062 256.992188 C 282.105469 256.941406 282.035156 256.894531 282 256.828125 C 280.460938 253.8125 277.703125 254.234375 275.128906 254.460938 C 270.539062 254.871094 266.496094 256.742188 262.753906 259.484375 C 258.972656 262.257812 255.859375 265.574219 253.417969 270.109375 C 255.78125 269.175781 257.84375 268.453125 259.816406 267.535156 C 260.457031 267.230469 260.929688 266.457031 261.375 265.824219 C 263.683594 262.558594 266.417969 259.808594 270.140625 258.273438 C 271.386719 257.761719 272.679688 257.113281 274.246094 257.804688 C 267.722656 260.539062 265.667969 262.058594 262.886719 266.527344 C 265.078125 265.273438 267.269531 264.023438 269.972656 262.476562 C 269.371094 263.289062 269.148438 263.734375 268.800781 264.035156 C 266.164062 266.335938 263.074219 267.796875 259.847656 268.984375 C 258.464844 269.5 257.0625 269.980469 255.722656 270.59375 C 252.71875 271.964844 250.75 274.265625 249.976562 277.570312 C 250.121094 277.609375 250.308594 277.71875 250.363281 277.667969 C 252.828125 275.449219 255.796875 274.324219 258.9375 273.648438 C 263.265625 272.714844 266.898438 270.621094 269.808594 267.210938 C 270.472656 266.4375 271.199219 265.71875 271.90625 264.980469 C 272.65625 264.191406 273.410156 263.476562 273.59375 262.25 C 273.746094 261.242188 274.597656 260.527344 275.625 260.738281 C 276.144531 260.84375 276.796875 261.546875 276.917969 262.089844 C 277.175781 263.21875 276.597656 264.320312 275.449219 264.355469 C 273.960938 264.40625 273.261719 265.375 272.410156 266.269531 C 271.816406 266.898438 271.191406 267.496094 270.632812 268.152344 C 267.664062 271.632812 263.949219 273.75 259.515625 274.566406 C 259.4375 274.582031 259.363281 274.605469 259.285156 274.617188 C 255.824219 275.203125 252.757812 276.457031 250.570312 279.5 C 249.015625 281.660156 247.105469 283.566406 245.652344 285.789062 C 243.613281 288.910156 241.265625 291.636719 237.738281 293.65625 C 239.886719 293.53125 241.246094 292.550781 242.714844 291.667969 C 246.949219 289.113281 250.878906 286.175781 254.378906 282.652344 C 255.617188 281.40625 257.15625 280.324219 256.929688 278.183594 C 256.902344 277.90625 257.117188 277.585938 257.269531 277.308594 C 257.910156 276.144531 259.253906 275.398438 260.375 275.652344 C 261.464844 275.894531 262.152344 276.609375 262.285156 277.757812 C 262.421875 278.914062 261.328125 280.925781 260.234375 280.847656 C 256.894531 280.605469 255.90625 283.628906 253.855469 285.226562 C 256.671875 284.757812 259.136719 282.457031 262.289062 283.671875 C 254.945312 285.613281 248.902344 289.960938 242.71875 294.265625 C 247.371094 294.796875 251.480469 293.132812 255.515625 291.128906 C 255.617188 291.332031 255.71875 291.53125 255.820312 291.734375 C 255.144531 292.269531 254.523438 292.894531 253.785156 293.3125 C 250.726562 295.042969 247.378906 295.816406 243.941406 295.679688 C 236.878906 295.402344 229.886719 295.917969 222.746094 297.21875 C 229.492188 298.335938 236.046875 297.796875 242.605469 296.707031 C 242.660156 296.925781 242.710938 297.144531 242.765625 297.359375 C 242.054688 297.613281 241.359375 298.019531 240.632812 298.097656 C 237.480469 298.429688 234.3125 298.949219 231.167969 298.863281 C 227.476562 298.761719 223.8125 298.03125 220.125 297.703125 C 212.921875 297.0625 205.898438 297.734375 199.324219 301.183594 C 199.273438 301.207031 199.269531 301.320312 199.222656 301.449219 C 205.203125 301.917969 211.160156 302.578125 217.132812 302.75 C 219.445312 302.816406 221.804688 301.828125 224.121094 301.222656 C 225.363281 300.902344 226.558594 300.378906 227.964844 300.339844 C 227.570312 300.621094 227.203125 300.941406 226.785156 301.179688 C 222.585938 303.585938 218.046875 304.300781 213.316406 303.960938 C 211.847656 303.855469 210.355469 303.777344 208.933594 303.433594 C 203.167969 302.050781 197.554688 303.007812 191.960938 304.464844 C 185.074219 306.253906 178.277344 305.554688 171.535156 303.753906 C 170.773438 303.550781 170.089844 303.039062 169.425781 302.4375 C 170.5625 301.757812 171.621094 302.175781 172.675781 302.449219 C 177.917969 303.796875 183.234375 304.175781 188.566406 303.179688 C 195.429688 301.898438 200.519531 298.128906 203.410156 291.511719 C 203.855469 290.503906 204.269531 289.46875 204.820312 288.519531 C 205.300781 287.683594 205.957031 286.953125 206.753906 286.308594 C 207.214844 290.402344 204.972656 293.496094 203.164062 296.933594 C 209.214844 297.054688 212.03125 292.296875 215.515625 288.617188 C 215.636719 288.71875 215.757812 288.820312 215.882812 288.917969 C 214.976562 290.410156 214.070312 291.902344 212.929688 293.78125 C 216.65625 291.945312 219.5625 289.707031 222.253906 286.933594 C 221.726562 285.757812 221.40625 284.449219 222.65625 283.589844 C 223.28125 283.160156 224.382812 282.8125 224.941406 283.09375 C 225.625 283.4375 226.300781 284.46875 226.339844 285.234375 C 226.363281 285.8125 225.453125 286.539062 224.828125 287.03125 C 224.003906 287.679688 223.007812 288.101562 222.160156 288.730469 C 219.296875 290.84375 216.46875 293.007812 213.675781 295.398438 C 214.421875 295.113281 215.199219 294.898438 215.90625 294.539062 C 218.886719 293.019531 221.859375 291.472656 224.816406 289.910156 C 227.761719 288.355469 230.234375 286.183594 232.21875 283.511719 C 233.972656 281.152344 233.699219 278.265625 233.765625 275.527344 C 233.875 271.070312 235.359375 267.199219 238.390625 263.964844 C 238.820312 263.507812 239.421875 263.214844 239.941406 262.839844 C 240.089844 262.984375 240.234375 263.132812 240.382812 263.277344 C 239.964844 263.878906 239.589844 264.515625 239.125 265.074219 C 236.679688 268.015625 235.425781 271.386719 235.140625 275.234375 C 234.929688 278.125 234.957031 281.117188 233.324219 283.714844 C 232.714844 284.6875 232.097656 285.652344 231.351562 286.832031 C 235.160156 284.683594 238.398438 282.1875 240.9375 278.820312 C 242.535156 276.703125 243.382812 274.265625 243.832031 271.664062 C 244.199219 269.566406 244.585938 267.472656 245.019531 265.386719 C 245.238281 264.316406 245.46875 263.371094 244.878906 262.25 C 244.246094 261.054688 245.378906 258.921875 246.566406 258.566406 C 247.679688 258.230469 249.207031 259.167969 249.667969 260.472656 C 250.128906 261.765625 249.488281 263.097656 248.085938 263.710938 C 247.59375 263.925781 247.074219 264.066406 246.289062 264.328125 C 246.140625 265.589844 245.90625 266.90625 245.835938 268.230469 C 245.367188 277.230469 240.339844 283.074219 233.035156 287.28125 C 230.546875 288.714844 227.910156 289.886719 225.046875 291.328125 C 228.191406 291.070312 231.097656 291.003906 233.648438 289.585938 C 236.042969 288.253906 238.25 286.566406 240.863281 285.3125 C 240.476562 285.820312 240.15625 286.410156 239.691406 286.824219 C 236.324219 289.847656 232.46875 291.738281 227.933594 291.910156 C 224.316406 292.046875 220.90625 292.867188 217.378906 295.121094 C 222.972656 294.730469 228.09375 294.507812 233.082031 293.007812 C 237.222656 291.765625 240.480469 289.28125 242.757812 285.628906 C 245.25 281.628906 247.664062 277.539062 248.679688 272.820312 C 248.925781 271.664062 249.113281 270.488281 249.246094 269.3125 C 249.738281 264.953125 250.84375 260.769531 252.953125 256.925781 C 254.691406 253.757812 255.261719 250.246094 256.167969 246.824219 C 256.261719 246.464844 256.371094 246.105469 256.613281 245.78125 C 256.984375 249.625 255.648438 253.109375 254.253906 256.574219 C 254.398438 256.671875 254.542969 256.765625 254.6875 256.859375 C 257.164062 253.96875 259.742188 251.164062 262.082031 248.164062 C 264.46875 245.109375 264.832031 241.257812 265.285156 237.488281 C 265.457031 237.503906 265.632812 237.515625 265.808594 237.53125 C 265.953125 237.917969 266.230469 238.308594 266.226562 238.695312 C 266.152344 242.34375 265.207031 245.78125 262.996094 248.660156 C 260.992188 251.265625 258.773438 253.726562 256.46875 256.058594 C 252.671875 259.910156 250.710938 264.503906 250.335938 270.128906 C 251.933594 267.785156 253.292969 265.582031 254.863281 263.546875 C 257.765625 259.800781 261.226562 256.621094 264.988281 253.785156 C 268.75 250.949219 270.085938 246.941406 270.09375 242.386719 C 270.097656 240.339844 269.824219 238.296875 269.761719 236.25 C 269.714844 234.773438 269.957031 233.355469 271.140625 232.265625 C 271.378906 232.5 271.472656 232.546875 271.472656 232.597656 C 271.441406 236.128906 271.539062 239.667969 271.308594 243.1875 C 271.15625 245.511719 270.523438 247.800781 270.128906 249.984375 C 274.785156 247.523438 277.910156 241.527344 276.101562 237.324219 C 275.664062 236.320312 275.414062 235.230469 275.128906 234.164062 C 274.699219 232.558594 274.449219 230.96875 274.984375 229.28125 C 275.203125 228.601562 274.953125 227.753906 274.867188 226.988281 C 274.703125 225.578125 275.269531 224.402344 276.300781 224.082031 C 277.339844 223.753906 278.402344 224.425781 278.992188 225.789062 C 279.585938 227.144531 279.355469 228.164062 278.257812 228.902344 C 277.578125 229.359375 276.40625 229.679688 276.285156 230.242188 C 276.035156 231.417969 276.210938 232.738281 276.4375 233.949219 C 276.832031 236.023438 277.460938 238.050781 277.863281 240.125 C 278.015625 240.9375 277.816406 241.820312 277.765625 242.921875 C 280.695312 240.957031 282.523438 238.089844 284.535156 235.367188 C 284.304688 234.722656 283.988281 234.152344 283.90625 233.546875 C 283.742188 232.34375 284.429688 231.601562 285.480469 231.234375 C 286.578125 230.851562 287.664062 231.597656 288.148438 232.898438 C 288.570312 234.027344 288.136719 234.964844 287.15625 235.167969 C 285.351562 235.542969 284.824219 237.058594 283.839844 238.246094 C 282.042969 240.410156 280.101562 242.453125 278.195312 244.519531 C 277.679688 245.078125 277.058594 245.535156 276.097656 246.382812 C 282.78125 243.867188 286.65625 239.152344 289.453125 233.328125 C 290.339844 231.480469 289.796875 229.75 288.765625 228.1875 C 287.820312 226.75 286.734375 225.410156 285.699219 224.03125 C 283.128906 220.621094 281.679688 216.765625 281.507812 212.460938 C 281.4375 210.695312 281.464844 208.855469 283.117188 207.425781 C 283.101562 210.050781 282.949219 212.488281 283.109375 214.902344 C 283.273438 217.382812 284.261719 219.636719 285.703125 221.648438 C 287.132812 223.648438 288.601562 225.625 290.421875 227.421875 C 289.851562 226.085938 289.339844 224.722656 288.699219 223.417969 C 287.308594 220.582031 286.003906 217.742188 286.222656 214.425781 C 286.253906 214 285.804688 213.511719 285.5 213.109375 C 285.269531 212.808594 284.871094 212.648438 284.625 212.355469 C 283.933594 211.523438 283.945312 210.628906 284.546875 209.746094 C 285.183594 208.808594 286.097656 208.648438 287.007812 209.121094 C 287.925781 209.601562 288.800781 210.371094 288.347656 211.558594 C 286.898438 215.382812 287.921875 218.820312 289.664062 222.199219 C 290.238281 223.304688 290.730469 224.457031 291.652344 225.578125 C 291.589844 223.695312 291.664062 221.792969 291.433594 219.933594 C 290.964844 216.175781 290.304688 212.457031 290.679688 208.625 C 290.867188 206.742188 289.75 205.316406 288.34375 204.242188 C 287.109375 203.300781 285.75 202.53125 284.472656 201.648438 C 283.523438 200.992188 282.546875 200.335938 282.089844 198.535156 C 284.03125 199.789062 285.589844 200.796875 287.410156 201.972656 C 287.457031 199.277344 285.75 197.042969 286.878906 194.507812 C 287.039062 194.976562 287.207031 195.445312 287.359375 195.914062 C 288.140625 198.300781 288.871094 200.707031 289.722656 203.066406 C 289.992188 203.808594 290.585938 204.429688 291.132812 205.257812 C 293.347656 200.054688 291.289062 192.628906 287.597656 190.152344 C 286.992188 189.746094 286.398438 189.070312 286.179688 188.390625 C 285.84375 187.347656 286.238281 186.25 287.207031 185.734375 C 287.808594 185.417969 288.785156 185.296875 289.355469 185.585938 C 290.417969 186.117188 290.703125 187.300781 290.484375 188.445312 C 290.359375 189.105469 289.90625 189.703125 289.765625 189.988281 C 291.105469 192.777344 292.351562 195.359375 293.453125 197.652344 C 293.875 195.480469 293.367188 192.953125 292.867188 190.414062 C 292.230469 187.175781 291.488281 183.941406 291.109375 180.664062 C 290.753906 177.566406 291.535156 174.582031 293.0625 171.785156 C 293.503906 176.496094 293.1875 181.277344 294.660156 186.003906 C 295.742188 183.824219 296.804688 181.777344 297.792969 179.691406 C 299.386719 176.316406 299.433594 173.019531 297.359375 169.796875 C 296.003906 167.691406 294.800781 165.492188 294.714844 162.75 C 294.945312 163.148438 295.1875 163.535156 295.398438 163.945312 C 296.253906 165.617188 297.003906 167.355469 297.964844 168.964844 C 300.117188 172.582031 300.722656 176.257812 298.816406 180.207031 C 297.757812 182.40625 296.71875 184.625 295.859375 186.90625 C 295.496094 187.867188 295.46875 189.042969 295.570312 190.085938 C 295.738281 191.804688 296.140625 193.496094 296.539062 195.746094 C 297.503906 193.660156 298.300781 191.941406 299.125 190.15625 C 298.5625 189.707031 298.113281 189.417969 297.75 189.046875 C 297.089844 188.359375 296.792969 187.605469 297.597656 186.78125 C 298.417969 185.941406 299.742188 185.828125 300.527344 186.628906 C 301.25 187.355469 301.675781 188.332031 300.738281 189.085938 C 299.824219 189.824219 299.792969 190.789062 299.457031 191.742188 C 298.835938 193.515625 297.914062 195.175781 297.210938 196.921875 C 296.21875 199.378906 295.320312 201.875 294.378906 204.351562 C 294.566406 204.476562 294.753906 204.605469 294.945312 204.730469 C 297.203125 202.664062 299.640625 200.769531 301.675781 198.496094 C 304.417969 195.441406 304.605469 189.941406 302.453125 186.015625 C 302.089844 185.347656 301.695312 184.699219 301.628906 183.726562 C 301.996094 184.003906 302.476562 184.210938 302.707031 184.578125 C 305.804688 189.523438 306.117188 197.535156 300.253906 201.804688 C 298.933594 202.765625 297.757812 203.941406 296.488281 204.980469 C 293.417969 207.480469 292.871094 210.867188 293.226562 214.542969 C 293.375 216.109375 293.675781 217.660156 293.9375 219.429688 C 295.441406 217.90625 296.195312 216.183594 296.578125 214.257812 C 296.761719 213.308594 296.753906 212.515625 295.878906 211.730469 C 294.746094 210.707031 294.976562 208.816406 296.105469 207.765625 C 297.101562 206.835938 298.398438 206.925781 299.402344 207.996094 C 300.480469 209.148438 300.617188 211.128906 299.371094 211.992188 C 298.222656 212.78125 297.933594 213.804688 297.789062 214.960938 C 297.507812 217.199219 296.210938 218.894531 294.972656 220.605469 C 294.332031 221.480469 294.0625 222.3125 294.09375 223.421875 C 294.140625 225.066406 293.894531 226.71875 293.753906 228.628906 C 297.570312 225.90625 299.085938 221.792969 301.054688 218.042969 C 303.125 214.09375 302.480469 209.835938 302.109375 205.605469 C 304.082031 208.554688 304.035156 211.851562 303.230469 214.996094 C 302.441406 218.0625 301.003906 220.960938 299.828125 224 C 304.070312 220.65625 308.363281 217.273438 312.65625 213.886719 C 312.777344 214.03125 312.898438 214.175781 313.019531 214.320312 C 311.824219 215.484375 310.710938 216.757812 309.417969 217.792969 C 305.691406 220.773438 301.8125 223.554688 298.15625 226.621094 C 296.320312 228.160156 294.691406 230.019531 293.246094 231.953125 C 291.894531 233.757812 290.914062 235.847656 290.019531 238.082031 C 290.394531 237.792969 290.78125 237.515625 291.144531 237.210938 C 292.160156 236.351562 293.074219 235.328125 294.191406 234.648438 C 295.882812 233.625 297.152344 232.570312 297.078125 230.273438 C 297.03125 228.820312 298.1875 228.074219 299.625 228.152344 C 300.925781 228.226562 301.652344 228.875 301.835938 230.136719 C 302.039062 231.523438 301.320312 232.957031 299.980469 232.925781 C 297.980469 232.875 297.101562 234.128906 296.144531 235.441406 C 292.488281 240.433594 287.242188 243.230469 282.0625 246.128906 C 280.875 246.792969 279.679688 247.441406 278.570312 248.253906 C 286.550781 248.292969 292.984375 244.519531 298.84375 239.578125 C 302.058594 236.871094 303.628906 233.03125 304.667969 228.976562 C 304.785156 228.527344 304.929688 228.085938 305.074219 227.644531 C 305.089844 227.601562 305.199219 227.585938 305.457031 227.476562 C 305.777344 229.175781 305.195312 230.710938 304.78125 232.199219 C 303.214844 237.773438 299.542969 241.613281 294.667969 244.34375 C 292.367188 245.636719 289.984375 246.792969 287.625 248.015625 C 289.417969 249.277344 293.160156 249.433594 295.988281 248.511719 C 298.84375 247.582031 300.648438 245.265625 302.984375 243.453125 C 302.8125 243.917969 302.734375 244.453125 302.457031 244.839844 C 299.699219 248.648438 296.207031 250.867188 291.339844 250.347656 C 287.964844 249.988281 284.546875 249.472656 281.179688 249.675781 C 276.574219 249.953125 272.175781 251.316406 268.492188 254.421875 C 268.269531 254.609375 268.070312 254.828125 267.773438 255.121094 " fill-opacity="1" fill-rule="nonzero"/></g></g></g></g><g fill="#4a4a32" fill-opacity="1"><g transform="translate(172.566468, 228.030717)"><g><path d="M 59.640625 31.515625 C 59.804688 31.515625 59.890625 31.625 59.890625 31.84375 C 59.890625 32.0625 59.804688 32.171875 59.640625 32.171875 C 55.285156 32.171875 51.328125 31.601562 47.765625 30.46875 C 44.210938 29.34375 40.988281 27.828125 38.09375 25.921875 C 35.195312 24.023438 32.601562 21.820312 30.3125 19.3125 C 28.03125 16.800781 25.960938 14.164062 24.109375 11.40625 C 22.265625 8.65625 20.597656 5.859375 19.109375 3.015625 C 17.617188 0.179688 16.238281 -2.53125 14.96875 -5.125 L 13.984375 -7.109375 C 12.109375 -7.273438 10.425781 -7.632812 8.9375 -8.1875 C 6.175781 -4.65625 3.59375 -1.207031 1.1875 2.15625 C -1.207031 5.519531 -3.378906 8.6875 -5.328125 11.65625 C -7.285156 14.632812 -8.96875 17.347656 -10.375 19.796875 C -11.78125 22.253906 -12.84375 24.34375 -13.5625 26.0625 C -13.675781 26.21875 -13.785156 26.296875 -13.890625 26.296875 C -14.117188 26.296875 -14.234375 26.1875 -14.234375 25.96875 C -14.003906 23.320312 -13.335938 20.566406 -12.234375 17.703125 C -11.140625 14.835938 -9.734375 11.875 -8.015625 8.8125 C -6.304688 5.75 -4.347656 2.617188 -2.140625 -0.578125 C 0.0546875 -3.773438 2.394531 -7 4.875 -10.25 C 3.71875 -11.03125 2.679688 -11.984375 1.765625 -13.109375 C 0.859375 -14.242188 0.40625 -15.441406 0.40625 -16.703125 C 0.40625 -17.640625 0.679688 -18.476562 1.234375 -19.21875 C 1.785156 -19.96875 2.585938 -20.34375 3.640625 -20.34375 C 4.742188 -20.34375 5.773438 -19.96875 6.734375 -19.21875 C 7.703125 -18.476562 8.65625 -17.476562 9.59375 -16.21875 C 13.5625 -21.175781 17.570312 -26.039062 21.625 -30.8125 C 25.675781 -35.582031 29.359375 -40.144531 32.671875 -44.5 C 35.984375 -48.851562 38.738281 -52.90625 40.9375 -56.65625 C 43.144531 -60.40625 44.390625 -63.6875 44.671875 -66.5 C 44.671875 -66.726562 44.78125 -66.84375 45 -66.84375 C 45.164062 -66.84375 45.25 -66.726562 45.25 -66.5 C 44.914062 -63.082031 43.671875 -59.332031 41.515625 -55.25 C 39.367188 -51.175781 36.664062 -46.90625 33.40625 -42.4375 C 30.15625 -37.96875 26.546875 -33.359375 22.578125 -28.609375 C 18.609375 -23.867188 14.664062 -19.128906 10.75 -14.390625 L 11.75 -12.734375 C 13.84375 -15.328125 16.304688 -18.304688 19.140625 -21.671875 C 21.984375 -25.035156 25.019531 -28.484375 28.25 -32.015625 C 31.476562 -35.546875 34.828125 -38.988281 38.296875 -42.34375 C 41.773438 -45.707031 45.179688 -48.710938 48.515625 -51.359375 C 51.847656 -54.015625 55.046875 -56.15625 58.109375 -57.78125 C 61.171875 -59.40625 63.914062 -60.21875 66.34375 -60.21875 C 68.601562 -60.21875 70.285156 -59.484375 71.390625 -58.015625 C 72.492188 -56.554688 73.046875 -54.585938 73.046875 -52.109375 C 73.046875 -49.847656 72.492188 -47.160156 71.390625 -44.046875 C 70.285156 -40.929688 68.671875 -37.703125 66.546875 -34.359375 C 64.421875 -31.023438 61.769531 -27.71875 58.59375 -24.4375 C 55.425781 -21.15625 51.800781 -18.21875 47.71875 -15.625 C 43.644531 -13.039062 39.113281 -10.945312 34.125 -9.34375 C 29.132812 -7.75 23.71875 -6.953125 17.875 -6.953125 L 16.296875 -6.953125 C 16.015625 -6.953125 15.75 -6.953125 15.5 -6.953125 C 15.257812 -6.953125 15 -6.976562 14.71875 -7.03125 L 15.640625 -5.296875 C 16.898438 -2.753906 18.257812 -0.078125 19.71875 2.734375 C 21.1875 5.546875 22.828125 8.316406 24.640625 11.046875 C 26.460938 13.773438 28.519531 16.363281 30.8125 18.8125 C 33.101562 21.269531 35.664062 23.445312 38.5 25.34375 C 41.34375 27.25 44.5 28.753906 47.96875 29.859375 C 51.445312 30.960938 55.335938 31.515625 59.640625 31.515625 Z M 66.34375 -59.5625 C 63.96875 -59.5625 61.273438 -58.742188 58.265625 -57.109375 C 55.265625 -55.484375 52.097656 -53.347656 48.765625 -50.703125 C 45.429688 -48.054688 42.023438 -45.035156 38.546875 -41.640625 C 35.066406 -38.253906 31.710938 -34.8125 28.484375 -31.3125 C 25.265625 -27.8125 22.234375 -24.378906 19.390625 -21.015625 C 16.554688 -17.648438 14.117188 -14.695312 12.078125 -12.15625 L 14.390625 -7.78125 L 18.78125 -7.78125 L 21.09375 -7.9375 L 23.078125 -8.1875 C 23.847656 -8.300781 24.601562 -8.425781 25.34375 -8.5625 C 26.09375 -8.695312 26.851562 -8.847656 27.625 -9.015625 C 32.09375 -10.066406 36.269531 -11.609375 40.15625 -13.640625 C 44.039062 -15.679688 47.625 -18.023438 50.90625 -20.671875 C 54.1875 -23.328125 57.125 -26.15625 59.71875 -29.15625 C 62.3125 -32.164062 64.503906 -35.144531 66.296875 -38.09375 C 68.085938 -41.039062 69.453125 -43.863281 70.390625 -46.5625 C 71.328125 -49.269531 71.796875 -51.617188 71.796875 -53.609375 C 71.796875 -55.484375 71.351562 -56.941406 70.46875 -57.984375 C 69.59375 -59.035156 68.21875 -59.5625 66.34375 -59.5625 Z M 1.40625 -18.28125 C 1.132812 -17.726562 1 -17.203125 1 -16.703125 C 1 -15.609375 1.425781 -14.519531 2.28125 -13.4375 C 3.132812 -12.363281 4.113281 -11.441406 5.21875 -10.671875 L 9.1875 -15.71875 C 8.300781 -16.875 7.429688 -17.820312 6.578125 -18.5625 C 5.722656 -19.3125 4.828125 -19.6875 3.890625 -19.6875 C 2.617188 -19.6875 1.789062 -19.21875 1.40625 -18.28125 Z M -13.234375 23.734375 C -12.347656 21.921875 -11.203125 19.828125 -9.796875 17.453125 C -8.390625 15.078125 -6.75 12.507812 -4.875 9.75 C -3 7 -0.945312 4.09375 1.28125 1.03125 C 3.507812 -2.03125 5.867188 -5.160156 8.359375 -8.359375 L 6.53125 -9.1875 C 4.101562 -6.207031 1.800781 -3.253906 -0.375 -0.328125 C -2.550781 2.585938 -4.503906 5.4375 -6.234375 8.21875 C -7.972656 11.007812 -9.445312 13.703125 -10.65625 16.296875 C -11.875 18.890625 -12.734375 21.367188 -13.234375 23.734375 Z M 11.328125 -12.25 L 10.34375 -13.890625 L 6.859375 -9.671875 C 7.191406 -9.515625 7.507812 -9.363281 7.8125 -9.21875 C 8.113281 -9.082031 8.40625 -8.957031 8.6875 -8.84375 Z M 9.34375 -8.609375 C 10.007812 -8.378906 10.695312 -8.207031 11.40625 -8.09375 C 12.125 -7.988281 12.875 -7.882812 13.65625 -7.78125 C 13.039062 -9.039062 12.375 -10.304688 11.65625 -11.578125 Z M 9.34375 -8.609375 "/></g></g></g><g fill="#4a4a32" fill-opacity="1"><g transform="translate(118.290978, 187.469248)"><g><path d="M 81.890625 6.375 C 82.003906 6.257812 82.085938 6.203125 82.140625 6.203125 C 82.304688 6.203125 82.390625 6.3125 82.390625 6.53125 C 82.390625 6.644531 82.363281 6.753906 82.3125 6.859375 C 80.65625 9.671875 78.804688 12.039062 76.765625 13.96875 C 74.722656 15.90625 72.515625 17.46875 70.140625 18.65625 C 67.773438 19.84375 65.28125 20.695312 62.65625 21.21875 C 60.039062 21.738281 57.296875 22 54.421875 22 C 50.347656 22 46.085938 21.554688 41.640625 20.671875 C 37.203125 19.796875 32.722656 18.664062 28.203125 17.28125 C 23.679688 15.90625 19.144531 14.429688 14.59375 12.859375 C 10.050781 11.285156 5.597656 9.785156 1.234375 8.359375 C -1.191406 10.722656 -3.695312 12.882812 -6.28125 14.84375 C -8.875 16.800781 -11.550781 18.46875 -14.3125 19.84375 C -17.070312 21.226562 -19.953125 22.304688 -22.953125 23.078125 C -25.960938 23.847656 -29.09375 24.234375 -32.34375 24.234375 C -34.601562 24.234375 -36.5625 24 -38.21875 23.53125 C -39.875 23.0625 -41.238281 22.410156 -42.3125 21.578125 C -43.382812 20.753906 -44.195312 19.804688 -44.75 18.734375 C -45.300781 17.660156 -45.578125 16.515625 -45.578125 15.296875 C -45.578125 13.804688 -45.132812 12.273438 -44.25 10.703125 C -43.375 9.140625 -42.050781 7.734375 -40.28125 6.484375 C -38.519531 5.242188 -36.328125 4.222656 -33.703125 3.421875 C -31.085938 2.628906 -28.070312 2.234375 -24.65625 2.234375 C -21.175781 2.234375 -17.378906 2.703125 -13.265625 3.640625 C -9.160156 4.578125 -4.875 5.765625 -0.40625 7.203125 C 2.625 4.003906 5.554688 0.488281 8.390625 -3.34375 C 11.234375 -7.175781 14.046875 -11.144531 16.828125 -15.25 C 19.617188 -19.363281 22.390625 -23.515625 25.140625 -27.703125 C 27.898438 -31.898438 30.726562 -35.96875 33.625 -39.90625 C 36.519531 -43.851562 39.484375 -47.601562 42.515625 -51.15625 C 45.546875 -54.71875 48.742188 -57.90625 52.109375 -60.71875 C 54.535156 -62.695312 56.988281 -64.460938 59.46875 -66.015625 C 59.695312 -66.171875 60.03125 -66.375 60.46875 -66.625 C 60.90625 -66.875 61.359375 -67.132812 61.828125 -67.40625 C 62.296875 -67.6875 62.75 -67.921875 63.1875 -68.109375 C 63.632812 -68.304688 63.96875 -68.40625 64.1875 -68.40625 C 64.351562 -68.40625 64.4375 -68.296875 64.4375 -68.078125 C 64.4375 -67.960938 64.378906 -67.878906 64.265625 -67.828125 C 63.171875 -67.273438 62.070312 -66.664062 60.96875 -66 C 59.863281 -65.34375 58.757812 -64.601562 57.65625 -63.78125 C 56 -62.507812 54.367188 -61.097656 52.765625 -59.546875 C 51.171875 -58.003906 49.578125 -56.351562 47.984375 -54.59375 C 45.441406 -51.726562 42.941406 -48.597656 40.484375 -45.203125 C 38.035156 -41.816406 35.582031 -38.285156 33.125 -34.609375 C 30.675781 -30.941406 28.207031 -27.21875 25.71875 -23.4375 C 23.238281 -19.664062 20.703125 -15.945312 18.109375 -12.28125 C 15.523438 -8.613281 12.863281 -5.070312 10.125 -1.65625 C 7.394531 1.757812 4.570312 4.929688 1.65625 7.859375 C 5.957031 9.296875 10.367188 10.796875 14.890625 12.359375 C 19.410156 13.929688 23.914062 15.378906 28.40625 16.703125 C 32.90625 18.023438 37.347656 19.113281 41.734375 19.96875 C 46.117188 20.832031 50.320312 21.265625 54.34375 21.265625 C 57.15625 21.265625 59.867188 21 62.484375 20.46875 C 65.109375 19.945312 67.59375 19.109375 69.9375 17.953125 C 72.28125 16.796875 74.457031 15.265625 76.46875 13.359375 C 78.488281 11.453125 80.296875 9.125 81.890625 6.375 Z M -32.34375 23.578125 C -29.3125 23.578125 -26.390625 23.191406 -23.578125 22.421875 C -20.765625 21.648438 -18.0625 20.570312 -15.46875 19.1875 C -12.875 17.8125 -10.363281 16.144531 -7.9375 14.1875 C -5.507812 12.226562 -3.164062 10.0625 -0.90625 7.6875 C -5.320312 6.257812 -9.515625 5.101562 -13.484375 4.21875 C -17.453125 3.332031 -21.175781 2.890625 -24.65625 2.890625 C -27.957031 2.890625 -30.875 3.257812 -33.40625 4 C -35.945312 4.75 -38.070312 5.726562 -39.78125 6.9375 C -41.5 8.15625 -42.796875 9.492188 -43.671875 10.953125 C -44.554688 12.421875 -45 13.867188 -45 15.296875 C -45 17.503906 -43.953125 19.4375 -41.859375 21.09375 C -39.765625 22.75 -36.59375 23.578125 -32.34375 23.578125 Z M -32.34375 23.578125 "/></g></g></g><g fill="#6b6d48" fill-opacity="1"><g transform="translate(108.397934, 296.549089)"><g><path d="M 1.46875 -4.46875 C 1.394531 -4.332031 1.300781 -4.210938 1.1875 -4.109375 C 1.082031 -4.023438 0.953125 -3.945312 0.796875 -3.875 C 0.648438 -3.800781 0.460938 -3.765625 0.234375 -3.765625 L 0.234375 -4.296875 C 0.460938 -4.296875 0.648438 -4.351562 0.796875 -4.46875 C 0.953125 -4.582031 1.082031 -4.710938 1.1875 -4.859375 C 1.300781 -5.023438 1.394531 -5.210938 1.46875 -5.421875 L 2.015625 -5.421875 L 2.015625 0 L 1.46875 0 Z M 1.46875 -4.46875 "/></g></g></g><g fill="#6b6d48" fill-opacity="1"><g transform="translate(111.150918, 296.549089)"><g><path d="M 0.40625 -0.5 L 2.328125 -2.4375 C 2.441406 -2.5625 2.554688 -2.679688 2.671875 -2.796875 C 2.785156 -2.910156 2.878906 -3.03125 2.953125 -3.15625 C 3.035156 -3.28125 3.101562 -3.410156 3.15625 -3.546875 C 3.207031 -3.691406 3.234375 -3.847656 3.234375 -4.015625 C 3.234375 -4.304688 3.128906 -4.546875 2.921875 -4.734375 C 2.710938 -4.929688 2.429688 -5.03125 2.078125 -5.03125 C 1.898438 -5.03125 1.738281 -5.003906 1.59375 -4.953125 C 1.445312 -4.910156 1.320312 -4.847656 1.21875 -4.765625 C 1.125 -4.679688 1.050781 -4.582031 1 -4.46875 C 0.957031 -4.351562 0.9375 -4.226562 0.9375 -4.09375 C 0.9375 -3.957031 0.945312 -3.835938 0.96875 -3.734375 C 0.976562 -3.679688 0.988281 -3.632812 1 -3.59375 L 0.46875 -3.59375 C 0.445312 -3.632812 0.429688 -3.6875 0.421875 -3.75 C 0.398438 -3.84375 0.390625 -3.96875 0.390625 -4.125 C 0.390625 -4.320312 0.425781 -4.503906 0.5 -4.671875 C 0.582031 -4.847656 0.691406 -5 0.828125 -5.125 C 0.972656 -5.25 1.148438 -5.347656 1.359375 -5.421875 C 1.578125 -5.503906 1.816406 -5.546875 2.078125 -5.546875 C 2.335938 -5.546875 2.570312 -5.503906 2.78125 -5.421875 C 2.988281 -5.347656 3.164062 -5.238281 3.3125 -5.09375 C 3.46875 -4.957031 3.585938 -4.796875 3.671875 -4.609375 C 3.753906 -4.429688 3.796875 -4.234375 3.796875 -4.015625 C 3.796875 -3.796875 3.765625 -3.597656 3.703125 -3.421875 C 3.648438 -3.242188 3.570312 -3.078125 3.46875 -2.921875 C 3.375 -2.773438 3.265625 -2.632812 3.140625 -2.5 C 3.015625 -2.375 2.890625 -2.242188 2.765625 -2.109375 L 1.140625 -0.5 L 3.84375 -0.5 L 3.84375 0 L 0.40625 0 Z M 0.40625 -0.5 "/></g></g></g><g fill="#6b6d48" fill-opacity="1"><g transform="translate(115.377331, 296.549089)"><g/></g></g><g fill="#6b6d48" fill-opacity="1"><g transform="translate(117.044633, 296.549089)"><g><path d="M 0.734375 -5.421875 L 2.28125 -5.421875 C 3.101562 -5.421875 3.738281 -5.191406 4.1875 -4.734375 C 4.632812 -4.273438 4.859375 -3.601562 4.859375 -2.71875 C 4.859375 -1.820312 4.632812 -1.144531 4.1875 -0.6875 C 3.738281 -0.226562 3.101562 0 2.28125 0 L 0.734375 0 Z M 2.28125 -0.5 C 2.9375 -0.5 3.4375 -0.679688 3.78125 -1.046875 C 4.132812 -1.410156 4.3125 -1.96875 4.3125 -2.71875 C 4.3125 -3.457031 4.132812 -4.007812 3.78125 -4.375 C 3.4375 -4.738281 2.9375 -4.921875 2.28125 -4.921875 L 1.28125 -4.921875 L 1.28125 -0.5 Z M 2.28125 -0.5 "/></g></g></g><g fill="#6b6d48" fill-opacity="1"><g transform="translate(122.38, 296.549089)"><g><path d="M 0.734375 -5.421875 L 4 -5.421875 L 4 -4.921875 L 1.28125 -4.921875 L 1.28125 -2.953125 L 3.515625 -2.953125 L 3.515625 -2.453125 L 1.28125 -2.453125 L 1.28125 -0.5 L 4 -0.5 L 4 0 L 0.734375 0 Z M 0.734375 -5.421875 "/></g></g></g><g fill="#6b6d48" fill-opacity="1"><g transform="translate(126.660706, 296.549089)"><g/></g></g><g fill="#6b6d48" fill-opacity="1"><g transform="translate(128.328008, 296.549089)"><g><path d="M 0.75 0.078125 C 0.582031 0.078125 0.441406 0.0625 0.328125 0.03125 C 0.265625 0.0195312 0.207031 0.0078125 0.15625 0 L 0.15625 -0.484375 C 0.195312 -0.472656 0.242188 -0.460938 0.296875 -0.453125 C 0.347656 -0.441406 0.40625 -0.429688 0.46875 -0.421875 C 0.53125 -0.421875 0.597656 -0.421875 0.671875 -0.421875 C 0.910156 -0.421875 1.097656 -0.5 1.234375 -0.65625 C 1.378906 -0.8125 1.453125 -1.050781 1.453125 -1.375 L 1.453125 -5.421875 L 1.984375 -5.421875 L 1.984375 -1.375 C 1.984375 -0.882812 1.875 -0.519531 1.65625 -0.28125 C 1.4375 -0.0390625 1.132812 0.078125 0.75 0.078125 Z M 0.75 0.078125 "/></g></g></g><g fill="#6b6d48" fill-opacity="1"><g transform="translate(131.057731, 296.549089)"><g><path d="M 2.734375 0.109375 C 2.441406 0.109375 2.171875 0.0625 1.921875 -0.03125 C 1.679688 -0.132812 1.472656 -0.28125 1.296875 -0.46875 C 1.117188 -0.664062 0.976562 -0.898438 0.875 -1.171875 C 0.78125 -1.441406 0.734375 -1.753906 0.734375 -2.109375 L 0.734375 -5.421875 L 1.28125 -5.421875 L 1.28125 -2.109375 C 1.28125 -1.828125 1.316406 -1.578125 1.390625 -1.359375 C 1.460938 -1.148438 1.5625 -0.972656 1.6875 -0.828125 C 1.8125 -0.679688 1.960938 -0.570312 2.140625 -0.5 C 2.316406 -0.425781 2.515625 -0.390625 2.734375 -0.390625 C 2.953125 -0.390625 3.148438 -0.425781 3.328125 -0.5 C 3.503906 -0.570312 3.65625 -0.679688 3.78125 -0.828125 C 3.90625 -0.972656 4.003906 -1.148438 4.078125 -1.359375 C 4.148438 -1.578125 4.1875 -1.828125 4.1875 -2.109375 L 4.1875 -5.421875 L 4.734375 -5.421875 L 4.734375 -2.109375 C 4.734375 -1.753906 4.679688 -1.441406 4.578125 -1.171875 C 4.484375 -0.898438 4.347656 -0.664062 4.171875 -0.46875 C 3.992188 -0.28125 3.78125 -0.132812 3.53125 -0.03125 C 3.289062 0.0625 3.023438 0.109375 2.734375 0.109375 Z M 2.734375 0.109375 "/></g></g></g><g fill="#6b6d48" fill-opacity="1"><g transform="translate(136.532687, 296.549089)"><g><path d="M 0.734375 -5.421875 L 1.28125 -5.421875 L 1.28125 -0.5 L 3.859375 -0.5 L 3.859375 0 L 0.734375 0 Z M 0.734375 -5.421875 "/></g></g></g><g fill="#6b6d48" fill-opacity="1"><g transform="translate(140.541966, 296.549089)"><g><path d="M 0.734375 -5.421875 L 1.28125 -5.421875 L 1.28125 -2.84375 L 4.171875 -2.84375 L 4.171875 -5.421875 L 4.71875 -5.421875 L 4.71875 0 L 4.171875 0 L 4.171875 -2.34375 L 1.28125 -2.34375 L 1.28125 0 L 0.734375 0 Z M 0.734375 -5.421875 "/></g></g></g><g fill="#6b6d48" fill-opacity="1"><g transform="translate(145.99366, 296.549089)"><g><path d="M 2.796875 0.109375 C 2.441406 0.109375 2.125 0.0507812 1.84375 -0.0625 C 1.5625 -0.175781 1.316406 -0.351562 1.109375 -0.59375 C 0.910156 -0.832031 0.753906 -1.125 0.640625 -1.46875 C 0.523438 -1.820312 0.46875 -2.238281 0.46875 -2.71875 C 0.46875 -3.1875 0.523438 -3.597656 0.640625 -3.953125 C 0.753906 -4.304688 0.910156 -4.597656 1.109375 -4.828125 C 1.316406 -5.066406 1.5625 -5.242188 1.84375 -5.359375 C 2.125 -5.484375 2.441406 -5.546875 2.796875 -5.546875 C 3.140625 -5.546875 3.453125 -5.484375 3.734375 -5.359375 C 4.015625 -5.242188 4.257812 -5.066406 4.46875 -4.828125 C 4.675781 -4.597656 4.832031 -4.304688 4.9375 -3.953125 C 5.050781 -3.597656 5.109375 -3.1875 5.109375 -2.71875 C 5.109375 -2.238281 5.050781 -1.820312 4.9375 -1.46875 C 4.832031 -1.125 4.675781 -0.832031 4.46875 -0.59375 C 4.257812 -0.351562 4.015625 -0.175781 3.734375 -0.0625 C 3.453125 0.0507812 3.140625 0.109375 2.796875 0.109375 Z M 2.796875 -0.390625 C 3.046875 -0.390625 3.28125 -0.4375 3.5 -0.53125 C 3.71875 -0.625 3.90625 -0.765625 4.0625 -0.953125 C 4.21875 -1.140625 4.335938 -1.378906 4.421875 -1.671875 C 4.515625 -1.960938 4.5625 -2.3125 4.5625 -2.71875 C 4.5625 -3.113281 4.515625 -3.457031 4.421875 -3.75 C 4.335938 -4.039062 4.21875 -4.28125 4.0625 -4.46875 C 3.90625 -4.664062 3.71875 -4.804688 3.5 -4.890625 C 3.28125 -4.984375 3.046875 -5.03125 2.796875 -5.03125 C 2.535156 -5.03125 2.296875 -4.984375 2.078125 -4.890625 C 1.859375 -4.804688 1.671875 -4.664062 1.515625 -4.46875 C 1.359375 -4.28125 1.234375 -4.039062 1.140625 -3.75 C 1.054688 -3.457031 1.015625 -3.113281 1.015625 -2.71875 C 1.015625 -2.3125 1.054688 -1.960938 1.140625 -1.671875 C 1.234375 -1.378906 1.359375 -1.140625 1.515625 -0.953125 C 1.671875 -0.765625 1.859375 -0.625 2.078125 -0.53125 C 2.296875 -0.4375 2.535156 -0.390625 2.796875 -0.390625 Z M 2.796875 -0.390625 "/></g></g></g><g fill="#6b6d48" fill-opacity="1"><g transform="translate(151.577184, 296.549089)"><g><path d="M 0.734375 -5.421875 L 2.28125 -5.421875 C 3.101562 -5.421875 3.738281 -5.191406 4.1875 -4.734375 C 4.632812 -4.273438 4.859375 -3.601562 4.859375 -2.71875 C 4.859375 -1.820312 4.632812 -1.144531 4.1875 -0.6875 C 3.738281 -0.226562 3.101562 0 2.28125 0 L 0.734375 0 Z M 2.28125 -0.5 C 2.9375 -0.5 3.4375 -0.679688 3.78125 -1.046875 C 4.132812 -1.410156 4.3125 -1.96875 4.3125 -2.71875 C 4.3125 -3.457031 4.132812 -4.007812 3.78125 -4.375 C 3.4375 -4.738281 2.9375 -4.921875 2.28125 -4.921875 L 1.28125 -4.921875 L 1.28125 -0.5 Z M 2.28125 -0.5 "/></g></g></g><g fill="#6b6d48" fill-opacity="1"><g transform="translate(156.912551, 296.549089)"><g><path d="M 0.734375 -5.421875 L 4 -5.421875 L 4 -4.921875 L 1.28125 -4.921875 L 1.28125 -2.953125 L 3.515625 -2.953125 L 3.515625 -2.453125 L 1.28125 -2.453125 L 1.28125 -0.5 L 4 -0.5 L 4 0 L 0.734375 0 Z M 0.734375 -5.421875 "/></g></g></g><g fill="#6b6d48" fill-opacity="1"><g transform="translate(161.193258, 296.549089)"><g/></g></g><g fill="#6b6d48" fill-opacity="1"><g transform="translate(162.860559, 296.549089)"><g><path d="M 0.40625 -0.5 L 2.328125 -2.4375 C 2.441406 -2.5625 2.554688 -2.679688 2.671875 -2.796875 C 2.785156 -2.910156 2.878906 -3.03125 2.953125 -3.15625 C 3.035156 -3.28125 3.101562 -3.410156 3.15625 -3.546875 C 3.207031 -3.691406 3.234375 -3.847656 3.234375 -4.015625 C 3.234375 -4.304688 3.128906 -4.546875 2.921875 -4.734375 C 2.710938 -4.929688 2.429688 -5.03125 2.078125 -5.03125 C 1.898438 -5.03125 1.738281 -5.003906 1.59375 -4.953125 C 1.445312 -4.910156 1.320312 -4.847656 1.21875 -4.765625 C 1.125 -4.679688 1.050781 -4.582031 1 -4.46875 C 0.957031 -4.351562 0.9375 -4.226562 0.9375 -4.09375 C 0.9375 -3.957031 0.945312 -3.835938 0.96875 -3.734375 C 0.976562 -3.679688 0.988281 -3.632812 1 -3.59375 L 0.46875 -3.59375 C 0.445312 -3.632812 0.429688 -3.6875 0.421875 -3.75 C 0.398438 -3.84375 0.390625 -3.96875 0.390625 -4.125 C 0.390625 -4.320312 0.425781 -4.503906 0.5 -4.671875 C 0.582031 -4.847656 0.691406 -5 0.828125 -5.125 C 0.972656 -5.25 1.148438 -5.347656 1.359375 -5.421875 C 1.578125 -5.503906 1.816406 -5.546875 2.078125 -5.546875 C 2.335938 -5.546875 2.570312 -5.503906 2.78125 -5.421875 C 2.988281 -5.347656 3.164062 -5.238281 3.3125 -5.09375 C 3.46875 -4.957031 3.585938 -4.796875 3.671875 -4.609375 C 3.753906 -4.429688 3.796875 -4.234375 3.796875 -4.015625 C 3.796875 -3.796875 3.765625 -3.597656 3.703125 -3.421875 C 3.648438 -3.242188 3.570312 -3.078125 3.46875 -2.921875 C 3.375 -2.773438 3.265625 -2.632812 3.140625 -2.5 C 3.015625 -2.375 2.890625 -2.242188 2.765625 -2.109375 L 1.140625 -0.5 L 3.84375 -0.5 L 3.84375 0 L 0.40625 0 Z M 0.40625 -0.5 "/></g></g></g><g fill="#6b6d48" fill-opacity="1"><g transform="translate(167.086972, 296.549089)"><g><path d="M 2.4375 0.109375 C 2.164062 0.109375 1.910156 0.0546875 1.671875 -0.046875 C 1.441406 -0.160156 1.234375 -0.335938 1.046875 -0.578125 C 0.867188 -0.816406 0.726562 -1.109375 0.625 -1.453125 C 0.519531 -1.804688 0.46875 -2.226562 0.46875 -2.71875 C 0.46875 -3.195312 0.519531 -3.613281 0.625 -3.96875 C 0.726562 -4.320312 0.867188 -4.613281 1.046875 -4.84375 C 1.234375 -5.082031 1.441406 -5.257812 1.671875 -5.375 C 1.910156 -5.488281 2.164062 -5.546875 2.4375 -5.546875 C 2.707031 -5.546875 2.960938 -5.488281 3.203125 -5.375 C 3.441406 -5.257812 3.648438 -5.082031 3.828125 -4.84375 C 4.003906 -4.613281 4.144531 -4.320312 4.25 -3.96875 C 4.363281 -3.613281 4.421875 -3.195312 4.421875 -2.71875 C 4.421875 -2.226562 4.363281 -1.804688 4.25 -1.453125 C 4.144531 -1.109375 4.003906 -0.816406 3.828125 -0.578125 C 3.648438 -0.335938 3.441406 -0.160156 3.203125 -0.046875 C 2.960938 0.0546875 2.707031 0.109375 2.4375 0.109375 Z M 2.4375 -0.390625 C 2.625 -0.390625 2.800781 -0.429688 2.96875 -0.515625 C 3.132812 -0.609375 3.285156 -0.75 3.421875 -0.9375 C 3.554688 -1.125 3.660156 -1.363281 3.734375 -1.65625 C 3.816406 -1.945312 3.859375 -2.300781 3.859375 -2.71875 C 3.859375 -3.125 3.816406 -3.472656 3.734375 -3.765625 C 3.660156 -4.054688 3.554688 -4.296875 3.421875 -4.484375 C 3.285156 -4.679688 3.132812 -4.820312 2.96875 -4.90625 C 2.800781 -4.988281 2.625 -5.03125 2.4375 -5.03125 C 2.257812 -5.03125 2.082031 -4.988281 1.90625 -4.90625 C 1.738281 -4.820312 1.585938 -4.679688 1.453125 -4.484375 C 1.328125 -4.296875 1.222656 -4.054688 1.140625 -3.765625 C 1.054688 -3.472656 1.015625 -3.125 1.015625 -2.71875 C 1.015625 -2.300781 1.054688 -1.945312 1.140625 -1.65625 C 1.222656 -1.363281 1.328125 -1.125 1.453125 -0.9375 C 1.585938 -0.75 1.738281 -0.609375 1.90625 -0.515625 C 2.082031 -0.429688 2.257812 -0.390625 2.4375 -0.390625 Z M 2.4375 -0.390625 "/></g></g></g><g fill="#6b6d48" fill-opacity="1"><g transform="translate(171.972559, 296.549089)"><g><path d="M 0.40625 -0.5 L 2.328125 -2.4375 C 2.441406 -2.5625 2.554688 -2.679688 2.671875 -2.796875 C 2.785156 -2.910156 2.878906 -3.03125 2.953125 -3.15625 C 3.035156 -3.28125 3.101562 -3.410156 3.15625 -3.546875 C 3.207031 -3.691406 3.234375 -3.847656 3.234375 -4.015625 C 3.234375 -4.304688 3.128906 -4.546875 2.921875 -4.734375 C 2.710938 -4.929688 2.429688 -5.03125 2.078125 -5.03125 C 1.898438 -5.03125 1.738281 -5.003906 1.59375 -4.953125 C 1.445312 -4.910156 1.320312 -4.847656 1.21875 -4.765625 C 1.125 -4.679688 1.050781 -4.582031 1 -4.46875 C 0.957031 -4.351562 0.9375 -4.226562 0.9375 -4.09375 C 0.9375 -3.957031 0.945312 -3.835938 0.96875 -3.734375 C 0.976562 -3.679688 0.988281 -3.632812 1 -3.59375 L 0.46875 -3.59375 C 0.445312 -3.632812 0.429688 -3.6875 0.421875 -3.75 C 0.398438 -3.84375 0.390625 -3.96875 0.390625 -4.125 C 0.390625 -4.320312 0.425781 -4.503906 0.5 -4.671875 C 0.582031 -4.847656 0.691406 -5 0.828125 -5.125 C 0.972656 -5.25 1.148438 -5.347656 1.359375 -5.421875 C 1.578125 -5.503906 1.816406 -5.546875 2.078125 -5.546875 C 2.335938 -5.546875 2.570312 -5.503906 2.78125 -5.421875 C 2.988281 -5.347656 3.164062 -5.238281 3.3125 -5.09375 C 3.46875 -4.957031 3.585938 -4.796875 3.671875 -4.609375 C 3.753906 -4.429688 3.796875 -4.234375 3.796875 -4.015625 C 3.796875 -3.796875 3.765625 -3.597656 3.703125 -3.421875 C 3.648438 -3.242188 3.570312 -3.078125 3.46875 -2.921875 C 3.375 -2.773438 3.265625 -2.632812 3.140625 -2.5 C 3.015625 -2.375 2.890625 -2.242188 2.765625 -2.109375 L 1.140625 -0.5 L 3.84375 -0.5 L 3.84375 0 L 0.40625 0 Z M 0.40625 -0.5 "/></g></g></g><g fill="#6b6d48" fill-opacity="1"><g transform="translate(176.198972, 296.549089)"><g><path d="M 2.0625 0.109375 C 1.738281 0.109375 1.460938 0.0664062 1.234375 -0.015625 C 1.015625 -0.109375 0.832031 -0.207031 0.6875 -0.3125 C 0.519531 -0.445312 0.378906 -0.597656 0.265625 -0.765625 L 0.578125 -1.140625 C 0.679688 -0.992188 0.800781 -0.867188 0.9375 -0.765625 C 1.050781 -0.671875 1.203125 -0.582031 1.390625 -0.5 C 1.578125 -0.425781 1.800781 -0.390625 2.0625 -0.390625 C 2.4375 -0.390625 2.734375 -0.5 2.953125 -0.71875 C 3.171875 -0.945312 3.28125 -1.25 3.28125 -1.625 C 3.28125 -1.988281 3.171875 -2.285156 2.953125 -2.515625 C 2.734375 -2.742188 2.4375 -2.859375 2.0625 -2.859375 C 1.90625 -2.859375 1.765625 -2.84375 1.640625 -2.8125 C 1.523438 -2.78125 1.421875 -2.742188 1.328125 -2.703125 C 1.234375 -2.648438 1.144531 -2.597656 1.0625 -2.546875 L 0.65625 -2.84375 L 1.078125 -5.421875 L 3.609375 -5.421875 L 3.609375 -4.921875 L 1.53125 -4.921875 L 1.25 -3.203125 C 1.3125 -3.234375 1.390625 -3.257812 1.484375 -3.28125 C 1.554688 -3.300781 1.640625 -3.316406 1.734375 -3.328125 C 1.835938 -3.347656 1.945312 -3.359375 2.0625 -3.359375 C 2.332031 -3.359375 2.578125 -3.3125 2.796875 -3.21875 C 3.015625 -3.132812 3.203125 -3.015625 3.359375 -2.859375 C 3.515625 -2.710938 3.632812 -2.53125 3.71875 -2.3125 C 3.800781 -2.101562 3.84375 -1.875 3.84375 -1.625 C 3.84375 -1.363281 3.800781 -1.125 3.71875 -0.90625 C 3.632812 -0.695312 3.515625 -0.515625 3.359375 -0.359375 C 3.203125 -0.210938 3.015625 -0.0976562 2.796875 -0.015625 C 2.578125 0.0664062 2.332031 0.109375 2.0625 0.109375 Z M 2.0625 0.109375 "/></g></g></g><g fill="#6b6d48" fill-opacity="1"><g transform="translate(258.351873, 153.087848)"><g><path d="M 0.828125 -6.125 L 1.4375 -6.125 L 1.4375 -0.5625 L 4.34375 -0.5625 L 4.34375 0 L 0.828125 0 Z M 0.828125 -6.125 "/></g></g></g><g fill="#6b6d48" fill-opacity="1"><g transform="translate(262.878148, 153.087848)"><g><path d="M 0.828125 -6.125 L 4.53125 -6.125 L 4.53125 -5.5625 L 1.4375 -5.5625 L 1.4375 -3.34375 L 3.96875 -3.34375 L 3.96875 -2.78125 L 1.4375 -2.78125 L 1.4375 -0.5625 L 4.53125 -0.5625 L 4.53125 0 L 0.828125 0 Z M 0.828125 -6.125 "/></g></g></g><g fill="#6b6d48" fill-opacity="1"><g transform="translate(267.710852, 153.087848)"><g><path d="M 2.09375 -5.5625 L 0.171875 -5.5625 L 0.171875 -6.125 L 4.625 -6.125 L 4.625 -5.5625 L 2.703125 -5.5625 L 2.703125 0 L 2.09375 0 Z M 2.09375 -5.5625 "/></g></g></g><g fill="#6b6d48" fill-opacity="1"><g transform="translate(272.508533, 153.087848)"><g><path d="M 0.828125 -6.125 L 1.4375 -6.125 L 1.4375 0 L 0.828125 0 Z M 1.53125 -8.109375 L 2.234375 -8.109375 L 1.296875 -6.671875 L 0.9375 -6.671875 Z M 1.53125 -8.109375 "/></g></g></g><g fill="#6b6d48" fill-opacity="1"><g transform="translate(274.784806, 153.087848)"><g><path d="M 3.171875 0.125 C 2.785156 0.125 2.429688 0.0546875 2.109375 -0.078125 C 1.785156 -0.210938 1.503906 -0.410156 1.265625 -0.671875 C 1.035156 -0.941406 0.851562 -1.273438 0.71875 -1.671875 C 0.59375 -2.078125 0.53125 -2.539062 0.53125 -3.0625 C 0.53125 -3.582031 0.59375 -4.039062 0.71875 -4.4375 C 0.851562 -4.84375 1.035156 -5.175781 1.265625 -5.4375 C 1.492188 -5.707031 1.769531 -5.910156 2.09375 -6.046875 C 2.414062 -6.179688 2.769531 -6.25 3.15625 -6.25 C 3.476562 -6.25 3.769531 -6.203125 4.03125 -6.109375 C 4.289062 -6.015625 4.507812 -5.890625 4.6875 -5.734375 C 4.875 -5.578125 5.015625 -5.390625 5.109375 -5.171875 C 5.210938 -4.953125 5.265625 -4.722656 5.265625 -4.484375 C 5.265625 -4.398438 5.257812 -4.316406 5.25 -4.234375 C 5.238281 -4.160156 5.226562 -4.097656 5.21875 -4.046875 C 5.195312 -3.984375 5.179688 -3.925781 5.171875 -3.875 L 4.5625 -3.875 C 4.570312 -3.925781 4.585938 -3.984375 4.609375 -4.046875 C 4.617188 -4.097656 4.625 -4.15625 4.625 -4.21875 C 4.632812 -4.289062 4.640625 -4.367188 4.640625 -4.453125 C 4.640625 -4.628906 4.601562 -4.789062 4.53125 -4.9375 C 4.46875 -5.082031 4.375 -5.210938 4.25 -5.328125 C 4.125 -5.441406 3.96875 -5.53125 3.78125 -5.59375 C 3.601562 -5.65625 3.394531 -5.6875 3.15625 -5.6875 C 2.863281 -5.6875 2.59375 -5.628906 2.34375 -5.515625 C 2.101562 -5.410156 1.894531 -5.25 1.71875 -5.03125 C 1.539062 -4.820312 1.398438 -4.550781 1.296875 -4.21875 C 1.203125 -3.894531 1.15625 -3.507812 1.15625 -3.0625 C 1.15625 -2.613281 1.207031 -2.222656 1.3125 -1.890625 C 1.414062 -1.566406 1.554688 -1.296875 1.734375 -1.078125 C 1.910156 -0.867188 2.125 -0.707031 2.375 -0.59375 C 2.625 -0.488281 2.90625 -0.4375 3.21875 -0.4375 C 3.519531 -0.4375 3.78125 -0.488281 4 -0.59375 C 4.21875 -0.695312 4.398438 -0.804688 4.546875 -0.921875 C 4.710938 -1.066406 4.859375 -1.234375 4.984375 -1.421875 L 5.328125 -0.984375 C 5.191406 -0.773438 5.023438 -0.585938 4.828125 -0.421875 C 4.648438 -0.285156 4.425781 -0.160156 4.15625 -0.046875 C 3.882812 0.0664062 3.554688 0.125 3.171875 0.125 Z M 3.171875 0.125 "/></g></g></g><g fill="#6b6d48" fill-opacity="1"><g transform="translate(280.510502, 153.087848)"><g><path d="M 0.828125 -6.125 L 1.4375 -6.125 L 1.4375 0 L 0.828125 0 Z M 0.828125 -6.125 "/></g></g></g><g fill="#6b6d48" fill-opacity="1"><g transform="translate(282.786775, 153.087848)"><g><path d="M 2.359375 -6.125 L 3.15625 -6.125 L 5.46875 0 L 4.796875 0 L 4.25 -1.484375 L 1.265625 -1.484375 L 0.71875 0 L 0.046875 0 Z M 4.03125 -2.0625 L 2.78125 -5.421875 L 2.734375 -5.421875 L 1.484375 -2.0625 Z M 4.03125 -2.0625 "/></g></g></g><g fill="#6b6d48" fill-opacity="1"><g transform="translate(288.302359, 153.087848)"><g/></g></g><g fill="#6b6d48" fill-opacity="1"><g transform="translate(290.184659, 153.087848)"><g><path d="M 0.828125 -6.125 L 4.53125 -6.125 L 4.53125 -5.5625 L 1.4375 -5.5625 L 1.4375 -3.34375 L 3.96875 -3.34375 L 3.96875 -2.78125 L 1.4375 -2.78125 L 1.4375 -0.5625 L 4.53125 -0.5625 L 4.53125 0 L 0.828125 0 Z M 0.828125 -6.125 "/></g></g></g><g fill="#6b6d48" fill-opacity="1"><g transform="translate(295.017362, 153.087848)"><g/></g></g><g fill="#6b6d48" fill-opacity="1"><g transform="translate(296.899662, 153.087848)"><g><path d="M 5.046875 0.09375 C 4.753906 0.09375 4.523438 0.0234375 4.359375 -0.109375 C 4.203125 -0.242188 4.066406 -0.441406 3.953125 -0.703125 L 3.453125 -1.828125 C 3.378906 -1.984375 3.285156 -2.109375 3.171875 -2.203125 C 3.066406 -2.296875 2.90625 -2.34375 2.6875 -2.34375 L 1.4375 -2.34375 L 1.4375 0 L 0.828125 0 L 0.828125 -6.125 L 2.6875 -6.125 C 3.070312 -6.125 3.40625 -6.078125 3.6875 -5.984375 C 3.976562 -5.898438 4.21875 -5.773438 4.40625 -5.609375 C 4.601562 -5.441406 4.75 -5.238281 4.84375 -5 C 4.945312 -4.769531 5 -4.515625 5 -4.234375 C 5 -4.046875 4.976562 -3.875 4.9375 -3.71875 C 4.894531 -3.5625 4.835938 -3.425781 4.765625 -3.3125 C 4.703125 -3.195312 4.628906 -3.097656 4.546875 -3.015625 C 4.460938 -2.929688 4.375 -2.863281 4.28125 -2.8125 C 4.082031 -2.675781 3.851562 -2.585938 3.59375 -2.546875 L 3.59375 -2.5 C 3.644531 -2.476562 3.695312 -2.441406 3.75 -2.390625 C 3.800781 -2.359375 3.851562 -2.304688 3.90625 -2.234375 C 3.96875 -2.160156 4.023438 -2.0625 4.078125 -1.9375 L 4.515625 -0.921875 C 4.578125 -0.773438 4.648438 -0.664062 4.734375 -0.59375 C 4.828125 -0.519531 4.960938 -0.484375 5.140625 -0.484375 C 5.179688 -0.484375 5.226562 -0.484375 5.28125 -0.484375 C 5.332031 -0.492188 5.378906 -0.503906 5.421875 -0.515625 C 5.460938 -0.523438 5.5 -0.535156 5.53125 -0.546875 L 5.53125 0 C 5.488281 0.0195312 5.4375 0.0351562 5.375 0.046875 C 5.269531 0.078125 5.160156 0.09375 5.046875 0.09375 Z M 2.6875 -2.90625 C 3.269531 -2.90625 3.691406 -3.023438 3.953125 -3.265625 C 4.222656 -3.503906 4.359375 -3.828125 4.359375 -4.234375 C 4.359375 -4.640625 4.222656 -4.960938 3.953125 -5.203125 C 3.691406 -5.441406 3.269531 -5.5625 2.6875 -5.5625 L 1.4375 -5.5625 L 1.4375 -2.90625 Z M 2.6875 -2.90625 "/></g></g></g><g fill="#6b6d48" fill-opacity="1"><g transform="translate(302.485279, 153.087848)"><g><path d="M 2.1875 -2.21875 L 0 -6.125 L 0.71875 -6.125 L 2.46875 -2.953125 L 2.515625 -2.953125 L 4.265625 -6.125 L 4.984375 -6.125 L 2.796875 -2.21875 L 2.796875 0 L 2.1875 0 Z M 2.1875 -2.21875 "/></g></g></g><g fill="#6b6d48" fill-opacity="1"><g transform="translate(307.475561, 153.087848)"><g><path d="M 2.359375 -6.125 L 3.15625 -6.125 L 5.46875 0 L 4.796875 0 L 4.25 -1.484375 L 1.265625 -1.484375 L 0.71875 0 L 0.046875 0 Z M 4.03125 -2.0625 L 2.78125 -5.421875 L 2.734375 -5.421875 L 1.484375 -2.0625 Z M 4.03125 -2.0625 "/></g></g></g><g fill="#6b6d48" fill-opacity="1"><g transform="translate(312.991145, 153.087848)"><g><path d="M 0.828125 -6.125 L 1.53125 -6.125 L 4.921875 -1.03125 L 4.96875 -1.03125 L 4.96875 -6.125 L 5.578125 -6.125 L 5.578125 0 L 4.875 0 L 1.484375 -5.09375 L 1.4375 -5.09375 L 1.4375 0 L 0.828125 0 Z M 0.828125 -6.125 "/></g></g></g></svg>